<svg width="186" height="80" viewBox="0 0 186 80" fill="none" xmlns="http://www.w3.org/2000/svg">
<path d="M183.514 39.9662C183.514 44.9814 181.168 49.8818 176.673 54.4734C172.171 59.0718 165.583 63.2816 157.324 66.8495C140.813 73.9831 117.897 78.4323 92.507 78.4323C67.1166 78.4323 44.2012 73.9831 27.6896 66.8495C19.4313 63.2816 12.8434 59.0718 8.34151 54.4734C3.84628 49.8818 1.5 44.9814 1.5 39.9662C1.5 34.9509 3.84628 30.0505 8.34151 25.4589C12.8434 20.8605 19.4313 16.6507 27.6896 13.0828C44.2012 5.94921 67.1166 1.5 92.507 1.5C117.897 1.5 140.813 5.94921 157.324 13.0828C165.583 16.6507 172.171 20.8605 176.673 25.4589C181.168 30.0505 183.514 34.9509 183.514 39.9662Z" stroke="#369A30" stroke-width="3" stroke-miterlimit="10"/>
<path d="M47.2563 56.5311L45.8827 55.1569C45.9861 55.2604 46.0945 55.3573 46.2074 55.4473L47.581 56.8214C47.4681 56.7315 47.3598 56.6346 47.2563 56.5311Z" fill="#2C7E27"/>
<path d="M47.581 56.8215L46.2074 55.4473C46.6075 55.766 47.0655 55.9974 47.5701 56.1238L48.9438 57.498C48.4392 57.3715 47.9811 57.1402 47.581 56.8215Z" fill="#2D8028"/>
<path d="M48.9437 57.498L47.5701 56.1239C47.8398 56.1915 48.1228 56.2291 48.4174 56.234L49.7911 57.6082C49.4965 57.6032 49.2134 57.5656 48.9437 57.498Z" fill="#2C7E27"/>
<path d="M49.7911 57.6081L48.4174 56.234C48.4397 56.2344 48.4621 56.2345 48.4845 56.2345L49.8581 57.6087C49.8357 57.6087 49.8134 57.6085 49.7911 57.6081Z" fill="#2A7B26"/>
<path d="M49.8581 57.6088L48.4845 56.2346C48.6631 56.2346 48.8387 56.2223 49.0109 56.1981L50.3845 57.5723C50.2124 57.5964 50.0367 57.6088 49.8581 57.6088Z" fill="#2A7B26"/>
<path d="M50.3845 57.5722L49.0109 56.1981C49.1813 56.1742 49.3483 56.1388 49.5114 56.0923L50.885 57.4665C50.7219 57.5129 50.5549 57.5483 50.3845 57.5722Z" fill="#297925"/>
<path d="M50.885 57.4665L49.5114 56.0924C49.6718 56.0467 49.8284 55.9905 49.9808 55.9241L51.3544 57.2983C51.202 57.3646 51.0454 57.4209 50.885 57.4665Z" fill="#287624"/>
<path d="M51.3544 57.2983L49.9808 55.9241C50.1448 55.8527 50.3039 55.7696 50.4575 55.6755L51.8311 57.0496C51.6775 57.1438 51.5184 57.2269 51.3544 57.2983Z" fill="#277323"/>
<path d="M51.8311 57.0496L50.4575 55.6754C50.6501 55.5574 50.834 55.422 51.0081 55.2706L52.3817 56.6447C52.2076 56.7962 52.0237 56.9315 51.8311 57.0496Z" fill="#257022"/>
<path d="M52.3817 56.6448L51.0081 55.2706C52.0781 54.3399 52.7773 52.8028 52.8346 50.9602C52.8797 49.5084 52.4675 47.8108 51.4129 46.7558L52.7865 48.13C53.8411 49.185 54.2533 50.8825 54.2082 52.3343C54.1509 54.177 53.4518 55.7141 52.3817 56.6448Z" fill="#246D21"/>
<path d="M50.3556 45.2644L48.982 43.8902C49.0272 43.8902 49.0721 43.8906 49.1169 43.8913L50.4905 45.2655C50.4457 45.2647 50.4008 45.2644 50.3556 45.2644Z" fill="#2A7B26"/>
<path d="M50.4905 45.2655L49.1169 43.8914C49.6974 43.9009 50.2476 43.9719 50.7634 44.0996L52.137 45.4738C51.6213 45.3461 51.071 45.275 50.4905 45.2655Z" fill="#2C7E27"/>
<path d="M52.137 45.4737L50.7634 44.0996C51.6412 44.317 52.4189 44.6984 53.0749 45.2199L54.4486 46.594C53.7926 46.0726 53.0148 45.6911 52.137 45.4737Z" fill="#2D8028"/>
<path d="M54.4486 46.594L53.0749 45.2199C53.2441 45.3543 53.4051 45.498 53.5577 45.6507L54.9313 47.0248C54.7787 46.8722 54.6177 46.7285 54.4486 46.594Z" fill="#2C7E27"/>
<path d="M45.1485 57.6856L43.7748 56.3115C42.5624 55.0986 41.8546 53.3117 41.9233 51.1005C41.9986 48.6782 42.9147 46.7899 44.3317 45.5544L45.7053 46.9285C44.2883 48.164 43.3723 50.0523 43.297 52.4746C43.2282 54.6858 43.936 56.4727 45.1485 57.6856Z" fill="#246D21"/>
<path d="M45.7053 46.9284L44.3317 45.5543C44.6041 45.3168 44.895 45.1034 45.202 44.9149L46.5756 46.2891C46.2686 46.4775 45.9777 46.6909 45.7053 46.9284Z" fill="#257022"/>
<path d="M46.5756 46.2891L45.202 44.915C45.4665 44.7527 45.7429 44.6089 46.0297 44.4842L47.4034 45.8583C47.1165 45.983 46.8401 46.1268 46.5756 46.2891Z" fill="#277323"/>
<path d="M47.4034 45.8583L46.0297 44.4842C46.3102 44.3622 46.6005 44.2585 46.8994 44.1736L48.273 45.5477C47.9741 45.6327 47.6838 45.7364 47.4034 45.8583Z" fill="#287624"/>
<path d="M48.273 45.5477L46.8994 44.1736C47.2178 44.0831 47.5459 44.0138 47.8818 43.9664L49.2555 45.3406C48.9195 45.388 48.5914 45.4572 48.273 45.5477Z" fill="#297925"/>
<path d="M49.2555 45.3406L47.8818 43.9664C48.2403 43.9159 48.6077 43.8902 48.982 43.8902L50.3556 45.2644C49.9813 45.2644 49.6139 45.29 49.2555 45.3406Z" fill="#2A7B26"/>
<path d="M50.3557 45.2644C54.3141 45.2644 56.9064 48.098 56.7774 52.2501C56.6213 57.272 53.0185 59.4604 49.6866 59.4604C45.9561 59.4604 43.1636 56.767 43.297 52.4746C43.4382 47.9296 46.5397 45.2644 50.3557 45.2644ZM49.8581 57.6087C52.2502 57.6087 54.1132 55.3923 54.2082 52.3343C54.2797 50.0338 53.2028 47.116 50.2412 47.116C47.2795 47.116 45.9143 49.8093 45.8341 52.3904C45.7417 55.3643 47.409 57.6087 49.8581 57.6087Z" fill="#369A30"/>
<path d="M72.54 59.1518L71.1664 57.7776L71.0546 51.2969L72.4282 52.671L72.54 59.1518Z" fill="#236B20"/>
<path d="M67.0518 56.1498L65.6781 54.7757H65.7351L67.1087 56.1498H67.0518Z" fill="#2C7F27"/>
<path d="M67.1087 56.1498L65.7351 54.7757C66.0797 53.7657 66.9158 51.6054 67.503 50.1185L68.8767 51.4926C68.2894 52.9796 67.4534 55.1398 67.1087 56.1498Z" fill="#246D21"/>
<path d="M72.4282 52.671L71.0546 51.2968C71.0145 49.838 70.9546 48.0985 70.9491 46.4433L72.3228 47.8174C72.3283 49.4727 72.3881 51.2121 72.4282 52.671Z" fill="#246D21"/>
<path d="M71.2819 45.573L69.9083 44.1988H73.0123L74.3859 45.573H71.2819Z" fill="#2C7F27"/>
<path d="M68.8767 51.4926L67.503 50.1185L69.9083 44.1988L71.2819 45.573L68.8767 51.4926Z" fill="#236B20"/>
<path d="M65.9074 59.0676L64.5338 57.6934L62.2931 50.9882L63.6667 52.3624L65.9074 59.0676Z" fill="#236B20"/>
<path d="M63.6667 52.3623L62.2931 50.9882C61.906 49.6977 61.3691 47.7338 61.0666 46.4713L62.4402 47.8455C62.7427 49.1079 63.2797 51.0718 63.6667 52.3623Z" fill="#246D21"/>
<path d="M59.0986 59.1518L57.725 57.7776L59.1722 44.1989L60.5459 45.573L59.0986 59.1518Z" fill="#236B20"/>
<path d="M60.5459 45.573L59.1722 44.1988H62.2478L63.6214 45.573H60.5459Z" fill="#2C7F27"/>
<path d="M74.3859 45.573L74.9322 59.1517H72.5401L72.4282 52.671C72.3881 51.2121 72.3283 49.4727 72.3228 47.8174H72.2373C71.8288 49.0518 71.4245 50.146 70.5911 52.2221L67.73 59.0676H65.9074L63.6667 52.3623C63.2797 51.0718 62.7427 49.1079 62.4402 47.8455H62.3263C62.2196 49.4446 62.0784 51.2401 61.9468 52.7271L61.4053 59.1517H59.0987L60.5459 45.573H63.6215L65.9147 52.4185C66.225 53.4285 66.7716 55.0837 67.0518 56.1498H67.1087C67.4534 55.1398 68.2894 52.9796 68.8767 51.4926L71.2819 45.573H74.3859Z" fill="#369A30"/>
<path d="M81.6094 56.5311L80.2358 55.1569C80.3393 55.2604 80.4476 55.3573 80.5605 55.4473L81.9342 56.8214C81.8212 56.7315 81.7129 56.6346 81.6094 56.5311Z" fill="#2C7E27"/>
<path d="M81.9342 56.8215L80.5605 55.4473C80.9606 55.766 81.4187 55.9974 81.9233 56.1238L83.2969 57.498C82.7923 57.3715 82.3343 57.1402 81.9342 56.8215Z" fill="#2D8028"/>
<path d="M83.2969 57.498L81.9232 56.1239C82.1929 56.1915 82.476 56.2291 82.7706 56.234L84.1442 57.6082C83.8496 57.6032 83.5666 57.5656 83.2969 57.498Z" fill="#2C7E27"/>
<path d="M84.1442 57.6081L82.7706 56.234C82.7928 56.2344 82.8152 56.2345 82.8376 56.2345L84.2112 57.6087C84.1888 57.6087 84.1665 57.6085 84.1442 57.6081Z" fill="#2A7B26"/>
<path d="M84.2112 57.6088L82.8376 56.2346C83.0162 56.2346 83.1919 56.2223 83.364 56.1981L84.7377 57.5723C84.5655 57.5964 84.3898 57.6088 84.2112 57.6088Z" fill="#2A7B26"/>
<path d="M84.7377 57.5722L83.364 56.1981C83.5344 56.1742 83.7014 56.1388 83.8645 56.0923L85.2382 57.4665C85.0751 57.5129 84.9081 57.5483 84.7377 57.5722Z" fill="#297925"/>
<path d="M85.2382 57.4665L83.8645 56.0924C84.0249 56.0467 84.1815 55.9905 84.3339 55.9241L85.7075 57.2983C85.5552 57.3646 85.3985 57.4209 85.2382 57.4665Z" fill="#287624"/>
<path d="M85.7075 57.2983L84.3339 55.9241C84.4979 55.8527 84.657 55.7696 84.8106 55.6755L86.1843 57.0496C86.0307 57.1438 85.8716 57.2269 85.7075 57.2983Z" fill="#277323"/>
<path d="M86.1843 57.0496L84.8106 55.6754C85.0032 55.5574 85.1871 55.422 85.3612 55.2706L86.7348 56.6447C86.5607 56.7962 86.3768 56.9315 86.1843 57.0496Z" fill="#257022"/>
<path d="M86.7348 56.6448L85.3612 55.2706C86.4313 54.3399 87.1304 52.8028 87.1877 50.9602C87.2328 49.5084 86.8206 47.8108 85.766 46.7558L87.1397 48.13C88.1943 49.185 88.6065 50.8825 88.5614 52.3343C88.5041 54.177 87.8049 55.7141 86.7348 56.6448Z" fill="#246D21"/>
<path d="M84.7088 45.2644L83.3352 43.8902C83.3803 43.8902 83.4253 43.8906 83.47 43.8913L84.8437 45.2655C84.7989 45.2647 84.7539 45.2644 84.7088 45.2644Z" fill="#2A7B26"/>
<path d="M84.8437 45.2655L83.47 43.8914C84.0503 43.9009 84.6004 43.9719 85.1158 44.0995L86.4894 45.4737C85.974 45.346 85.424 45.275 84.8437 45.2655Z" fill="#2C7E27"/>
<path d="M86.4894 45.4737L85.1158 44.0995C85.993 44.3167 86.7701 44.6979 87.4255 45.2189L88.7991 46.593C88.1437 46.072 87.3667 45.6908 86.4894 45.4737Z" fill="#2D8028"/>
<path d="M88.7991 46.593L87.4255 45.2188C87.5944 45.3531 87.7553 45.4967 87.9076 45.6492L89.2813 47.0233C89.1289 46.8708 88.968 46.7273 88.7991 46.593Z" fill="#2C7E27"/>
<path d="M79.5016 57.6856L78.128 56.3115C76.9155 55.0986 76.2078 53.3117 76.2765 51.1005C76.3518 48.6782 77.2679 46.7899 78.6848 45.5544L80.0584 46.9285C78.6415 48.164 77.7254 50.0523 77.6501 52.4746C77.5814 54.6858 78.2891 56.4727 79.5016 57.6856Z" fill="#246D21"/>
<path d="M80.0584 46.9284L78.6848 45.5543C78.9572 45.3168 79.2481 45.1034 79.5552 44.9149L80.9288 46.2891C80.6218 46.4775 80.3308 46.6909 80.0584 46.9284Z" fill="#257022"/>
<path d="M80.9288 46.2891L79.5552 44.915C79.8196 44.7527 80.0961 44.6089 80.3829 44.4842L81.7565 45.8583C81.4697 45.983 81.1933 46.1268 80.9288 46.2891Z" fill="#277323"/>
<path d="M81.7565 45.8583L80.3829 44.4842C80.6633 44.3622 80.9537 44.2585 81.2525 44.1736L82.6261 45.5477C82.3273 45.6327 82.0369 45.7364 81.7565 45.8583Z" fill="#287624"/>
<path d="M82.6261 45.5477L81.2525 44.1736C81.5709 44.0831 81.899 44.0138 82.235 43.9664L83.6086 45.3406C83.2726 45.388 82.9446 45.4572 82.6261 45.5477Z" fill="#297925"/>
<path d="M83.6086 45.3406L82.235 43.9664C82.5934 43.9159 82.9609 43.8902 83.3352 43.8902L84.7088 45.2644C84.3345 45.2644 83.9671 45.29 83.6086 45.3406Z" fill="#2A7B26"/>
<path d="M84.7088 45.2644C88.6672 45.2644 91.256 48.098 91.1269 52.2501C90.9709 57.272 87.3716 59.4604 84.0398 59.4604C80.3092 59.4604 77.5167 56.767 77.6501 52.4746C77.7914 47.9296 80.8928 45.2644 84.7088 45.2644ZM84.2112 57.6087C86.6033 57.6087 88.4663 55.3923 88.5614 52.3343C88.6328 50.0338 87.5559 47.116 84.5943 47.116C81.6326 47.116 80.2674 49.8093 80.1872 52.3904C80.0948 55.3643 81.7622 57.6087 84.2112 57.6087Z" fill="#369A30"/>
<path d="M116.02 56.5311L114.647 55.1569C114.75 55.2604 114.859 55.3573 114.972 55.4473L116.345 56.8214C116.232 56.7315 116.124 56.6346 116.02 56.5311Z" fill="#2C7E27"/>
<path d="M116.345 56.8215L114.972 55.4473C115.372 55.766 115.83 55.9974 116.334 56.1238L117.708 57.498C117.203 57.3715 116.745 57.1402 116.345 56.8215Z" fill="#2D8028"/>
<path d="M117.708 57.498L116.334 56.1239C116.604 56.1915 116.887 56.2291 117.182 56.234L118.555 57.6082C118.261 57.6032 117.978 57.5656 117.708 57.498Z" fill="#2C7E27"/>
<path d="M118.555 57.6081L117.182 56.234C117.204 56.2344 117.226 56.2345 117.249 56.2345L118.622 57.6087C118.6 57.6087 118.578 57.6085 118.555 57.6081Z" fill="#2A7B26"/>
<path d="M118.622 57.6088L117.249 56.2346C117.427 56.2346 117.603 56.2223 117.775 56.1981L119.149 57.5723C118.976 57.5964 118.801 57.6088 118.622 57.6088Z" fill="#2A7B26"/>
<path d="M119.149 57.5722L117.775 56.1981C117.945 56.1742 118.112 56.1388 118.276 56.0923L119.649 57.4665C119.486 57.5129 119.319 57.5483 119.149 57.5722Z" fill="#297925"/>
<path d="M119.649 57.4665L118.276 56.0924C118.436 56.0467 118.593 55.9905 118.745 55.9241L120.119 57.2983C119.966 57.3646 119.81 57.4209 119.649 57.4665Z" fill="#287624"/>
<path d="M120.119 57.2983L118.745 55.9241C118.909 55.8527 119.068 55.7696 119.222 55.6755L120.595 57.0496C120.442 57.1438 120.283 57.2269 120.119 57.2983Z" fill="#277323"/>
<path d="M120.595 57.0496L119.222 55.6754C119.414 55.5574 119.598 55.422 119.772 55.2706L121.146 56.6447C120.972 56.7962 120.788 56.9315 120.595 57.0496Z" fill="#257022"/>
<path d="M121.146 56.6448L119.772 55.2706C120.842 54.3399 121.541 52.8029 121.599 50.9602C121.644 49.5084 121.232 47.8108 120.177 46.7558L121.551 48.13C122.605 49.185 123.018 50.8825 122.972 52.3343C122.915 54.177 122.216 55.7141 121.146 56.6448Z" fill="#246D21"/>
<path d="M119.12 45.2644L117.746 43.8902C117.791 43.8902 117.836 43.8906 117.881 43.8913L119.255 45.2655C119.21 45.2647 119.165 45.2644 119.12 45.2644Z" fill="#2A7B26"/>
<path d="M119.255 45.2655L117.881 43.8914C118.461 43.9009 119.011 43.9719 119.527 44.0995L120.9 45.4737C120.385 45.346 119.835 45.275 119.255 45.2655Z" fill="#2C7E27"/>
<path d="M120.9 45.4737L119.527 44.0995C120.404 44.3167 121.181 44.6979 121.837 45.2189L123.21 46.593C122.555 46.072 121.778 45.6908 120.9 45.4737Z" fill="#2D8028"/>
<path d="M123.21 46.593L121.837 45.2188C122.005 45.3531 122.166 45.4967 122.319 45.6492L123.692 47.0233C123.54 46.8708 123.379 46.7273 123.21 46.593Z" fill="#2C7E27"/>
<path d="M113.913 57.6856L112.539 56.3115C111.327 55.0986 110.619 53.3117 110.688 51.1005C110.763 48.6782 111.679 46.7899 113.096 45.5544L114.469 46.9285C113.053 48.164 112.136 50.0523 112.061 52.4746C111.992 54.6858 112.7 56.4727 113.913 57.6856Z" fill="#246D21"/>
<path d="M114.469 46.9284L113.096 45.5543C113.368 45.3168 113.659 45.1034 113.966 44.9149L115.34 46.2891C115.033 46.4775 114.742 46.6909 114.469 46.9284Z" fill="#257022"/>
<path d="M115.34 46.2891L113.966 44.915C114.231 44.7527 114.507 44.6089 114.794 44.4842L116.168 45.8583C115.881 45.983 115.604 46.1268 115.34 46.2891Z" fill="#277323"/>
<path d="M116.168 45.8583L114.794 44.4842C115.074 44.3622 115.365 44.2585 115.664 44.1736L117.037 45.5477C116.738 45.6327 116.448 45.7364 116.168 45.8583Z" fill="#287624"/>
<path d="M117.037 45.5477L115.664 44.1736C115.982 44.0831 116.31 44.0138 116.646 43.9664L118.02 45.3406C117.684 45.388 117.356 45.4572 117.037 45.5477Z" fill="#297925"/>
<path d="M118.02 45.3406L116.646 43.9664C117.004 43.9159 117.372 43.8902 117.746 43.8902L119.12 45.2644C118.746 45.2644 118.378 45.29 118.02 45.3406Z" fill="#2A7B26"/>
<path d="M119.12 45.2644C123.078 45.2644 125.667 48.098 125.538 52.2501C125.382 57.272 121.783 59.4604 118.451 59.4604C114.72 59.4604 111.928 56.767 112.061 52.4746C112.202 47.9296 115.304 45.2644 119.12 45.2644ZM118.622 57.6087C121.014 57.6087 122.877 55.3923 122.972 52.3343C123.044 50.0338 121.967 47.116 119.005 47.116C116.044 47.116 114.678 49.8093 114.598 52.3904C114.506 55.3643 116.173 57.6087 118.622 57.6087Z" fill="#369A30"/>
<path d="M137.695 59.1517L136.322 57.7776L136.513 51.6335L137.886 53.0076L137.695 59.1517Z" fill="#236B20"/>
<path d="M137.947 51.0437L136.574 49.6696L136.744 44.1988L138.117 45.573L137.947 51.0437Z" fill="#236B20"/>
<path d="M138.117 45.573L136.744 44.1988H139.221L140.595 45.573H138.117Z" fill="#2C7F27"/>
<path d="M131.398 51.0438L130.024 49.6696H136.574L137.947 51.0438H131.398Z" fill="#2C7F27"/>
<path d="M129.09 45.573L127.716 44.1988H130.194L131.568 45.573H129.09Z" fill="#2C7F27"/>
<path d="M128.668 59.1518L127.294 57.7776L127.716 44.1989L129.09 45.573L128.668 59.1518Z" fill="#236B20"/>
<path d="M140.595 45.573L140.173 59.1517H137.695L137.886 53.0076H131.337L131.146 59.1517H128.668L129.09 45.573H131.568L131.398 51.0437H137.947L138.117 45.573H140.595Z" fill="#369A30"/>
<path d="M100.168 64.7476L98.7945 63.3734L98.9584 58.099L100.332 59.4732L100.168 64.7476Z" fill="#236B20"/>
<path d="M102.663 57.7618L101.29 56.3877C101.308 56.3853 101.325 56.3829 101.343 56.3804L102.717 57.7546C102.699 57.7571 102.681 57.7595 102.663 57.7618Z" fill="#2A7B26"/>
<path d="M102.717 57.7546L101.343 56.3804C101.603 56.3439 101.853 56.2907 102.094 56.2221L103.468 57.5963C103.227 57.6649 102.976 57.718 102.717 57.7546Z" fill="#297925"/>
<path d="M103.468 57.5963L102.094 56.2222C102.321 56.1575 102.54 56.0792 102.75 55.9881L104.123 57.3622C103.914 57.4533 103.695 57.5317 103.468 57.5963Z" fill="#287624"/>
<path d="M104.123 57.3622L102.75 55.9881C102.968 55.8929 103.178 55.7837 103.376 55.6617L104.75 57.0359C104.551 57.1579 104.342 57.267 104.123 57.3622Z" fill="#277323"/>
<path d="M104.75 57.0358L103.376 55.6617C103.612 55.5168 103.834 55.3538 104.04 55.1745L105.413 56.5486C105.207 56.728 104.986 56.891 104.75 57.0358Z" fill="#257022"/>
<path d="M105.413 56.5486L104.04 55.1744C105.179 54.1825 105.847 52.6904 105.9 51.001C105.95 49.39 105.439 48.0011 104.474 47.036L105.848 48.4101C106.813 49.3752 107.323 50.7642 107.273 52.3752C107.221 54.0645 106.553 55.5566 105.413 56.5486Z" fill="#246D21"/>
<path d="M97.5496 56.4244L96.1759 55.0502C96.2944 55.1688 96.4196 55.2808 96.5513 55.3858L97.9249 56.7599C97.7933 56.6549 97.6681 56.5429 97.5496 56.4244Z" fill="#2C7E27"/>
<path d="M97.925 56.7599L96.5513 55.3857C97.0628 55.7937 97.6721 56.0964 98.3659 56.2686L99.7395 57.6428C99.0457 57.4705 98.4365 57.1679 97.925 56.7599Z" fill="#2D8028"/>
<path d="M99.7395 57.6428L98.3659 56.2686C98.5737 56.3202 98.789 56.3601 99.0116 56.3876L100.385 57.7618C100.163 57.7343 99.9473 57.6944 99.7395 57.6428Z" fill="#2C7E27"/>
<path d="M103.049 45.3614L101.675 43.9872C102.241 44.0269 102.783 44.1107 103.297 44.2373L104.671 45.6115C104.157 45.4848 103.615 45.401 103.049 45.3614Z" fill="#2C7E27"/>
<path d="M104.671 45.6114L103.297 44.2373C104.355 44.4982 105.292 44.941 106.065 45.5538L107.438 46.928C106.666 46.3151 105.729 45.8724 104.671 45.6114Z" fill="#2D8028"/>
<path d="M107.438 46.928L106.065 45.5538C106.247 45.6983 106.42 45.8523 106.583 46.0155L107.957 47.3897C107.793 47.2264 107.62 47.0725 107.438 46.928Z" fill="#2C7E27"/>
<path d="M100.385 57.7618L99.0116 56.3876L99.3447 45.6705L100.718 47.0447L100.385 57.7618Z" fill="#236B20"/>
<path d="M100.771 45.3614L99.397 43.9872H101.675L103.049 45.3614H100.771Z" fill="#2C7F27"/>
<path d="M95.4084 57.4582L94.0348 56.0841C92.8585 54.9074 92.1893 53.2416 92.2546 51.1414C92.327 48.8109 93.2029 47.0551 94.5718 45.8623L95.9454 47.2364C94.5765 48.4293 93.7007 50.185 93.6282 52.5155C93.563 54.6157 94.2321 56.2816 95.4084 57.4582Z" fill="#246D21"/>
<path d="M95.9454 47.2364L94.5718 45.8623C94.8582 45.6127 95.1662 45.3878 95.4929 45.1873L96.8665 46.5615C96.5398 46.7619 96.2318 46.9868 95.9454 47.2364Z" fill="#257022"/>
<path d="M96.8665 46.5615L95.4929 45.1874C95.7906 45.0048 96.1039 44.8425 96.4306 44.7006L97.8042 46.0747C97.4775 46.2167 97.1643 46.3789 96.8665 46.5615Z" fill="#277323"/>
<path d="M97.8042 46.0747L96.4306 44.7006C96.7686 44.5537 97.121 44.4285 97.4853 44.325L98.8589 45.6992C98.4946 45.8027 98.1422 45.9278 97.8042 46.0747Z" fill="#287624"/>
<path d="M98.8589 45.6992L97.4853 44.325C97.8971 44.208 98.3242 44.1187 98.7631 44.0568L100.137 45.431C99.6978 45.4928 99.2707 45.5822 98.8589 45.6992Z" fill="#297925"/>
<path d="M100.137 45.431L98.7631 44.0568C98.9719 44.0274 99.1833 44.0042 99.397 43.9872L100.771 45.3614C100.557 45.3784 100.346 45.4016 100.137 45.431Z" fill="#2A7B26"/>
<path d="M103.049 45.3614C107.055 45.6419 109.883 48.1388 109.751 52.3752C109.612 56.836 106.463 59.1926 102.611 59.4451L102.446 64.7476H100.168L100.332 59.4732C96.3531 59.2207 93.4966 56.7518 93.6283 52.5155C93.7678 48.0266 96.8881 45.67 100.771 45.3614H103.049ZM100.385 57.7618L100.718 47.0447C97.9162 47.4094 96.1948 49.6538 96.1084 52.4313C96.0212 55.2368 97.6619 57.4251 100.385 57.7618ZM102.663 57.7618C105.437 57.3971 107.187 55.1527 107.273 52.3752C107.361 49.5696 105.747 47.4374 102.997 47.0447L102.663 57.7618Z" fill="#369A30"/>
<path d="M37.6541 59.2614L36.2804 57.8873L36.2398 51.9781L37.6135 53.3523L37.6541 59.2614Z" fill="#236B20"/>
<path d="M38.4735 50.7642L37.0998 49.39L39.2796 49.4637L40.6533 50.8378L38.4735 50.7642Z" fill="#2C7F27"/>
<path d="M24.2181 50.7256L22.8445 49.3515H33.8795L35.2531 50.7256H24.2181Z" fill="#2C7F27"/>
<path d="M18.9961 50.8378L17.6225 49.4637L19.5114 49.39L20.885 50.7642L18.9961 50.8378Z" fill="#2C7E27"/>
<path d="M18.955 59.2614L17.5814 57.8873L17.6225 49.4637L18.9961 50.8379L18.955 59.2614Z" fill="#236B20"/>
<path d="M40.4684 30.1015L39.0947 28.7273L37.7834 27.3953L39.1571 28.7694L40.4684 30.1015Z" fill="#6F4928"/>
<path d="M35.2531 50.7256L33.8795 49.3515L34.4803 30.0214L35.8539 31.3955L35.2531 50.7256Z" fill="#236B20"/>
<path d="M20.885 50.7642L19.5114 49.39C20.4891 47.7102 21.4701 45.9252 22.1247 43.9929C23.0639 41.1453 23.497 37.8628 23.6284 33.6335L25.0021 35.0076C24.8706 39.237 24.4376 42.5194 23.4983 45.3671C22.8438 47.2994 21.8628 49.0844 20.885 50.7642Z" fill="#246D21"/>
<path d="M39.1571 28.7694L37.7834 27.3952L31.0234 20.5281L32.3971 21.9023L39.1571 28.7694Z" fill="#6F4928"/>
<path d="M25.1954 28.7863L23.8218 27.4122L31.0234 20.5281L32.3971 21.9023L25.1954 28.7863Z" fill="#257022"/>
<path d="M25.0021 35.0076L23.6284 33.6335L23.8218 27.4122L25.1954 28.7863L25.0021 35.0076Z" fill="#236B20"/>
<path d="M38.4735 50.7642L40.6533 50.8379L40.1707 59.2615H37.6541L37.6135 53.3523H21.8796L21.4717 59.2615H18.955L18.9961 50.8379L20.885 50.7642C21.8628 49.0844 22.8438 47.2994 23.4983 45.3671C24.4376 42.5194 24.8706 39.237 25.0021 35.0076L25.1954 28.7864L32.397 21.9023L39.1571 28.7689L38.4735 50.7642ZM35.2531 50.7256L35.8539 31.3955H28.1152L27.9712 36.0282C27.8488 39.9664 27.3753 43.2875 26.3993 46.0579C25.8299 47.7728 24.9993 49.414 24.2181 50.7256H35.2531Z" fill="#369A30"/>
<path d="M31.1065 20.5907L29.7329 19.2165L31.105 17.905L32.4786 19.2791L31.1065 20.5907Z" fill="#724B29"/>
<path d="M23.8197 30.1015L22.446 28.7273L21.1555 27.4157L22.5291 28.7899L23.8197 30.1015Z" fill="#6F4928"/>
<path d="M22.5291 28.7899L21.1555 27.4157L29.7329 19.2166L31.1065 20.5907L22.5291 28.7899Z" fill="#724B29"/>
<path d="M32.4786 19.2791L33.7692 20.5907L41.8404 28.7899L40.4684 30.1015L39.1571 28.7694L32.3971 21.9023L25.196 28.7689L23.8197 30.1015L22.5291 28.7899L31.1065 20.5907L32.4786 19.2791Z" fill="#895A33"/>
<path d="M162.524 59.2614L161.151 57.8873L161.114 51.9781L162.487 53.3523L162.524 59.2614Z" fill="#236B20"/>
<path d="M163.344 50.7642L161.97 49.39L164.153 49.4637L165.527 50.8378L163.344 50.7642Z" fill="#2C7F27"/>
<path d="M149.092 50.7256L147.718 49.3515H158.75L160.123 50.7256H149.092Z" fill="#2C7F27"/>
<path d="M143.87 50.8378L142.496 49.4637L144.385 49.39L145.759 50.7642L143.87 50.8378Z" fill="#2C7E27"/>
<path d="M143.829 59.2614L142.455 57.8873L142.496 49.4637L143.87 50.8379L143.829 59.2614Z" fill="#236B20"/>
<path d="M160.123 50.7256L158.75 49.3515L159.35 30.0214L160.724 31.3955L160.123 50.7256Z" fill="#236B20"/>
<path d="M145.759 50.7642L144.385 49.39C145.363 47.7102 146.344 45.9252 146.995 43.9929C147.938 41.1453 148.371 37.8628 148.502 33.6335L149.876 35.0076C149.744 39.237 149.311 42.5194 148.368 45.3671C147.717 47.2994 146.736 49.0844 145.759 50.7642Z" fill="#246D21"/>
<path d="M165.342 30.1014L163.968 28.7273L155.897 20.5281L157.271 21.9023L165.342 30.1014Z" fill="#6F4928"/>
<path d="M163.344 50.7642L165.527 50.8379L165.044 59.2615H162.524L162.487 53.3523H146.753L146.345 59.2615H143.829L143.87 50.8379L145.759 50.7642C146.736 49.0844 147.717 47.2994 148.368 45.3671C149.311 42.5194 149.744 39.237 149.876 35.0076L150.069 28.7834L157.271 21.9023L164.027 28.7689L163.344 50.7642ZM160.123 50.7256L160.724 31.3955H152.989L152.845 36.0282C152.722 39.9664 152.249 43.2875 151.273 46.0579C150.704 47.7728 149.873 49.414 149.092 50.7256H160.123Z" fill="#369A30"/>
<path d="M149.876 35.0076L148.502 33.6335L148.696 27.4093L150.069 28.7834L149.876 35.0076Z" fill="#236B20"/>
<path d="M150.069 28.7834L148.696 27.4093L155.897 20.5281L157.271 21.9023L150.069 28.7834Z" fill="#257022"/>
<path d="M155.98 20.5907L154.607 19.2165L155.979 17.905L157.352 19.2791L155.98 20.5907Z" fill="#724B29"/>
<path d="M147.399 28.7899L146.026 27.4157L154.607 19.2166L155.98 20.5907L147.399 28.7899Z" fill="#724B29"/>
<path d="M148.69 30.1015L147.316 28.7273L146.026 27.4157L147.399 28.7899L148.69 30.1015Z" fill="#6F4928"/>
<path d="M157.352 19.2791L158.643 20.5907L166.714 28.7899L165.342 30.1015L157.271 21.9023L150.07 28.7689L148.69 30.1015L147.399 28.7899L155.98 20.5907L157.352 19.2791Z" fill="#895A33"/>
<path d="M140.355 40.6544L138.981 39.2802L139.104 35.3315L140.478 36.7056L140.355 40.6544Z" fill="#236B20"/>
<path d="M134.841 40.6544L133.467 39.2803H138.981L140.355 40.6544H134.841Z" fill="#2C7F27"/>
<path d="M140.53 35.0152L139.157 33.6411L139.281 29.6467L140.654 31.0209L140.53 35.0152Z" fill="#236B20"/>
<path d="M135.016 35.0153L133.643 33.6411H139.157L140.53 35.0153H135.016Z" fill="#2C7F27"/>
<path d="M131.607 42.8777L130.234 41.5036L130.4 36.1591L131.773 37.5332L131.607 42.8777Z" fill="#236B20"/>
<path d="M139.978 29.0725L138.604 27.6983L143.072 29.6502L144.445 31.0244L139.978 29.0725Z" fill="#7B512D"/>
<path d="M129.267 37.5332L127.894 36.1591H130.4L131.773 37.5332H129.267Z" fill="#7A502C"/>
<path d="M129.101 42.8778L127.728 41.5036L127.894 36.1591L129.267 37.5332L129.101 42.8778Z" fill="#6F4928"/>
<path d="M131.773 37.5332L131.607 42.8777H129.101L129.267 37.5332H131.773Z" fill="#895A33"/>
<path d="M137.899 28.1641L136.525 26.7899L138.604 27.6983L139.978 29.0725L137.899 28.1641Z" fill="#7B512D"/>
<path d="M133.037 35.0152L131.663 33.6411L131.789 29.6151L133.162 30.9893L133.037 35.0152Z" fill="#236B20"/>
<path d="M137.962 26.1287L136.589 24.7546H138.696L140.07 26.1287H137.962Z" fill="#2C7F27"/>
<path d="M137.899 28.164L136.525 26.7899L136.589 24.7546L137.962 26.1287L137.899 28.164Z" fill="#236B20"/>
<path d="M140.07 26.1288L139.978 29.0725L137.899 28.1641L137.962 26.1288H140.07Z" fill="#369A30"/>
<path d="M127.566 35.0153L126.192 33.6411H131.663L133.037 35.0153H127.566Z" fill="#2C7F27"/>
<path d="M125.737 42.8778L124.364 41.5036L124.715 30.2149L126.088 31.589L125.737 42.8778Z" fill="#236B20"/>
<path d="M126.315 24.3033L143.256 31.7072L142.909 42.8777H131.607L131.773 37.5332H129.267L129.101 42.8777H125.737L126.088 31.589L126.315 24.3033ZM133.037 35.0152L133.162 30.9893H127.691L127.566 35.0152H133.037ZM140.53 35.0152L140.654 31.0209H135.14L135.016 35.0152H140.53ZM140.355 40.6544L140.478 36.7056H134.964L134.841 40.6544H140.355Z" fill="#369A30"/>
<path d="M126.315 24.3033L124.941 22.9292L141.883 30.3331L143.256 31.7073L126.315 24.3033Z" fill="#2D8128"/>
<path d="M126.088 31.589L124.715 30.2149L124.941 22.9292L126.315 24.3033L126.088 31.589Z" fill="#236B20"/>
<path d="M125.637 24.0071L124.263 22.6329L124.282 21.4406L125.656 22.8147L125.637 24.0071Z" fill="#6F4928"/>
<path d="M125.656 22.8147L124.282 21.4406L136.525 26.7899L137.899 28.1641L125.656 22.8147Z" fill="#7B512D"/>
<path d="M125.656 22.8147L137.899 28.1641L139.978 29.0725L144.445 31.0244L143.973 32.0204L143.256 31.7073L126.315 24.3033L125.637 24.0071L125.656 22.8147Z" fill="#895A33"/>
<path d="M95.7578 42.7732L94.3841 41.3991H97.2639L98.6376 42.7732H95.7578Z" fill="#2C7F27"/>
<path d="M98.6376 42.7733L97.2639 41.3991L97.43 36.0546L98.8037 37.4287L98.6376 42.7733Z" fill="#236B20"/>
<path d="M98.8037 37.4287L98.6376 42.7733H95.7578L95.9239 37.4287H98.8037Z" fill="#895A33"/>
<path d="M95.7578 42.7733L94.3841 41.3991L94.5502 36.0546L95.9239 37.4287L95.7578 42.7733Z" fill="#6F4928"/>
<path d="M95.9239 37.4287L94.5503 36.0546H97.4301L98.8037 37.4287H95.9239Z" fill="#7A502C"/>
<path d="M99.8621 36.2434L98.4885 34.8693L98.6176 30.7136L99.9913 32.0877L99.8621 36.2434Z" fill="#236B20"/>
<path d="M95.6439 36.2434L94.2703 34.8693H98.4885L99.8621 36.2434H95.6439Z" fill="#2C7F27"/>
<path d="M86.7945 42.7732L85.4208 41.3991H88.1226L89.4963 42.7732H86.7945Z" fill="#2C7F27"/>
<path d="M89.4963 42.7733L88.1226 41.3991L88.2887 36.0546L89.6624 37.4287L89.4963 42.7733Z" fill="#236B20"/>
<path d="M100.026 30.9585L98.6528 29.5844L98.7819 25.4287L100.156 26.8028L100.026 30.9585Z" fill="#236B20"/>
<path d="M95.8081 30.9585L94.4345 29.5844H98.6527L100.026 30.9585H95.8081Z" fill="#2C7F27"/>
<path d="M86.9606 37.4287L85.5869 36.0546H88.2887L89.6624 37.4287H86.9606Z" fill="#7A502C"/>
<path d="M86.7945 42.7733L85.4208 41.3991L85.5869 36.0546L86.9606 37.4287L86.7945 42.7733Z" fill="#6F4928"/>
<path d="M90.4106 36.1452L89.037 34.7711L89.1631 30.7136L90.5367 32.0877L90.4106 36.1452Z" fill="#236B20"/>
<path d="M86.2921 36.1452L84.9185 34.7711H89.037L90.4106 36.1452H86.2921Z" fill="#2C7F27"/>
<path d="M100.184 25.8945L98.8101 24.5203L98.9394 20.3611L100.313 21.7353L100.184 25.8945Z" fill="#236B20"/>
<path d="M95.9655 25.8945L94.5919 24.5204H98.8101L100.184 25.8945H95.9655Z" fill="#2C7F27"/>
<path d="M102.792 19.9644L101.419 18.5902L100.922 18.0852L102.295 19.4594L102.792 19.9644Z" fill="#6F4928"/>
<path d="M90.5718 30.9585L89.1982 29.5843L89.3243 25.5269L90.6979 26.901L90.5718 30.9585Z" fill="#236B20"/>
<path d="M86.4533 30.9585L85.0797 29.5844H89.1982L90.5718 30.9585H86.4533Z" fill="#2C7F27"/>
<path d="M102.295 19.4593L100.922 18.0852L98.0128 15.1289L99.3864 16.503L102.295 19.4593Z" fill="#6F4928"/>
<path d="M97.3752 16.503L96.0015 15.1289H98.0128L99.3864 16.503H97.3752Z" fill="#2C7F27"/>
<path d="M90.7292 25.8945L89.3556 24.5203L89.4818 20.4593L90.8555 21.8335L90.7292 25.8945Z" fill="#236B20"/>
<path d="M86.6107 25.8945L85.237 24.5204H89.3556L90.7292 25.8945H86.6107Z" fill="#2C7F27"/>
<path d="M99.3864 16.503L98.0128 15.1289L96.0631 13.1475L97.4368 14.5216L99.3864 16.503Z" fill="#6F4928"/>
<path d="M97.3752 16.503L96.0015 15.1289L96.0631 13.1475L97.4367 14.5216L97.3752 16.503Z" fill="#236B20"/>
<path d="M93.4362 18.1688L92.0626 16.7947C92.1322 16.7947 92.2008 16.7898 92.268 16.7803L93.6416 18.1544C93.5744 18.1639 93.5058 18.1688 93.4362 18.1688Z" fill="#2A7B26"/>
<path d="M93.6417 18.1545L92.268 16.7803C92.3351 16.7709 92.4007 16.7569 92.4646 16.7387L93.8383 18.1129C93.7743 18.1311 93.7087 18.145 93.6417 18.1545Z" fill="#297925"/>
<path d="M93.8383 18.1128L92.4646 16.7387C92.5277 16.7208 92.5891 16.6987 92.6485 16.6729L94.0221 18.047C93.9627 18.0729 93.9013 18.0949 93.8383 18.1128Z" fill="#287624"/>
<path d="M94.0221 18.047L92.6485 16.6729C92.7119 16.6453 92.773 16.6134 92.8314 16.5776L94.205 17.9517C94.1466 17.9876 94.0855 18.0194 94.0221 18.047Z" fill="#277323"/>
<path d="M94.205 17.9517L92.8314 16.5776C92.9018 16.5344 92.9683 16.4855 93.0302 16.4315L94.4038 17.8057C94.3419 17.8596 94.2754 17.9085 94.205 17.9517Z" fill="#257022"/>
<path d="M94.4038 17.8056L93.0302 16.4315C93.3235 16.1759 93.5136 15.8069 93.5264 15.3953C93.5386 15.004 93.3879 14.651 93.1345 14.3975L94.5082 15.7717C94.7616 16.0252 94.9122 16.3781 94.9 16.7695C94.8872 17.181 94.6971 17.55 94.4038 17.8056Z" fill="#246D21"/>
<path d="M92.4518 17.7665L91.0781 16.3924C91.1147 16.429 91.1534 16.4635 91.194 16.4957L92.5676 17.8699C92.527 17.8376 92.4883 17.8031 92.4518 17.7665Z" fill="#2C7E27"/>
<path d="M92.5676 17.8699L91.194 16.4957C91.3458 16.6163 91.5248 16.7055 91.7213 16.7537L93.0949 18.1279C92.8984 18.0796 92.7194 17.9904 92.5676 17.8699Z" fill="#2D8028"/>
<path d="M93.0949 18.1278L91.7213 16.7537C91.8226 16.7786 91.9286 16.7926 92.038 16.7944L93.4116 18.1686C93.3022 18.1667 93.1963 18.1527 93.0949 18.1278Z" fill="#2C7E27"/>
<path d="M93.4116 18.1686L92.0379 16.7944C92.0461 16.7946 92.0543 16.7946 92.0626 16.7946L93.4362 18.1688C93.428 18.1688 93.4198 18.1687 93.4116 18.1686Z" fill="#2A7B26"/>
<path d="M97.4367 14.5216L96.0631 13.1475L92.3019 9.32492L93.6755 10.6991L97.4367 14.5216Z" fill="#6F4928"/>
<path d="M99.3864 16.503L102.295 19.4593L101.567 42.8785H83.769L84.4964 19.4734L93.6755 10.6991L97.4367 14.5216L97.3752 16.503H99.3864ZM100.184 25.8945L100.313 21.7353H96.0948L95.9655 25.8945H100.184ZM99.8621 36.2434L99.9913 32.0877H95.7731L95.6439 36.2434H99.8621ZM100.026 30.9585L100.156 26.8028H95.9373L95.8082 30.9585H100.026ZM90.7292 25.8945L90.8554 21.8335H86.7369L86.6107 25.8945H90.7292ZM90.5718 30.9585L90.698 26.901H86.5794L86.4533 30.9585H90.5718ZM90.4106 36.1452L90.5368 32.0877H86.4182L86.2921 36.1452H90.4106ZM98.6376 42.7733L98.8037 37.4287H95.9239L95.7578 42.7733H98.6376ZM89.4963 42.7733L89.6624 37.4287H86.9606L86.7945 42.7733H89.4963ZM93.4362 18.1688C94.2229 18.1688 94.8759 17.5446 94.9 16.7695C94.9241 15.9945 94.3099 15.3703 93.5232 15.3703C92.7401 15.3703 92.0835 15.9945 92.0594 16.7695C92.0353 17.5446 92.6531 18.1688 93.4362 18.1688Z" fill="#369A30"/>
<path d="M89.6624 37.4287L89.4963 42.7733H86.7945L86.9606 37.4287H89.6624Z" fill="#895A33"/>
<path d="M97.3752 16.503L97.4367 14.5216L99.3864 16.503H97.3752Z" fill="#369A30"/>
<path d="M99.503 14.9284L98.1293 13.5543L96.1141 11.5062L97.4878 12.8804L99.503 14.9284Z" fill="#236B20"/>
<path d="M97.4878 12.8804L96.1141 11.5062L96.1822 9.31439L97.5559 10.6885L97.4878 12.8804Z" fill="#236B20"/>
<path d="M97.5559 10.6885H99.6347L99.503 14.9284L97.4877 12.8804L97.5559 10.6885Z" fill="#369A30"/>
<path d="M97.5559 10.6885L96.1822 9.31439H98.2611L99.6347 10.6885H97.5559Z" fill="#2C7F27"/>
<path d="M83.769 42.8785L82.3954 41.5043L83.1228 18.0992L84.4964 19.4734L83.769 42.8785Z" fill="#236B20"/>
<path d="M84.4965 19.4734L83.1228 18.0992L92.3019 9.32492L93.6755 10.6991L84.4965 19.4734Z" fill="#257022"/>
<path d="M83.9828 19.9643L82.6092 18.5901L81.7982 17.7695L83.1718 19.1437L83.9828 19.9643Z" fill="#6F4928"/>
<path d="M93.7265 9.05783L97.4878 12.8804L99.503 14.9284L103.651 19.1437L102.792 19.9643L102.295 19.4593L99.3864 16.503L97.4367 14.5216L93.6755 10.6991L84.4964 19.4734L83.9828 19.9643L83.1718 19.1437L93.7265 9.05783Z" fill="#895A33"/>
<path d="M83.1718 19.1437L81.7982 17.7696L92.3529 7.68369L93.7265 9.05783L83.1718 19.1437Z" fill="#724B29"/>
<path d="M70.7473 42.8213L69.3737 41.4471H72.1431L73.5167 42.8213H70.7473Z" fill="#2C7F27"/>
<path d="M73.5167 42.8213L72.1431 41.4471L72.3092 36.1026L73.6828 37.4767L73.5167 42.8213Z" fill="#236B20"/>
<path d="M78.1408 36.2914L76.7672 34.9172L76.8913 30.9229L78.2649 32.297L78.1408 36.2914Z" fill="#236B20"/>
<path d="M74.0863 36.2914L72.7127 34.9172H76.7672L78.1408 36.2914H74.0863Z" fill="#2C7F27"/>
<path d="M70.7473 42.8213L69.3737 41.4471L69.5398 36.1026L70.9134 37.4767L70.7473 42.8213Z" fill="#6F4928"/>
<path d="M70.9134 37.4767L69.5398 36.1026H72.3092L73.6828 37.4767H70.9134Z" fill="#7A502C"/>
<path d="M73.6828 37.4767L73.5167 42.8213H70.7473L70.9134 37.4767H73.6828Z" fill="#895A33"/>
<path d="M78.3051 31.0065L76.9314 29.6323L77.0556 25.6379L78.4292 27.0121L78.3051 31.0065Z" fill="#236B20"/>
<path d="M74.2506 31.0065L72.8769 29.6323H76.9314L78.3051 31.0065H74.2506Z" fill="#2C7F27"/>
<path d="M70.2663 36.1932L68.8926 34.8191L69.0137 30.9229L70.3873 32.297L70.2663 36.1932Z" fill="#236B20"/>
<path d="M66.3114 36.1932L64.9378 34.819H68.8926L70.2663 36.1932H66.3114Z" fill="#2C7F27"/>
<path d="M78.4822 25.3078L77.1085 23.9336L77.2327 19.9393L78.6063 21.3134L78.4822 25.3078Z" fill="#236B20"/>
<path d="M74.4277 25.3077L73.054 23.9336H77.1085L78.4822 25.3077H74.4277Z" fill="#2C7F27"/>
<path d="M70.4275 31.0065L69.0538 29.6323L69.1749 25.7361L70.5485 27.1103L70.4275 31.0065Z" fill="#236B20"/>
<path d="M66.4726 31.0065L65.099 29.6323H69.0538L70.4275 31.0065H66.4726Z" fill="#2C7F27"/>
<path d="M65.3877 24.9128L64.014 23.5387L78.852 15.8262L80.2256 17.2003L65.3877 24.9128Z" fill="#287624"/>
<path d="M64.8306 42.8353L63.457 41.4612L64.014 23.5387L65.3877 24.9128L64.8306 42.8353Z" fill="#236B20"/>
<path d="M65.3877 24.9128L80.2256 17.2003L79.992 24.7186L79.4289 42.8353H64.8306L65.3877 24.9128ZM78.4822 25.3078L78.6063 21.3134H74.5518L74.4277 25.3078H78.4822ZM78.3051 31.0065L78.4292 27.0121H74.3747L74.2506 31.0065H78.3051ZM78.1408 36.2914L78.2649 32.297H74.2104L74.0863 36.2914H78.1408ZM70.4275 31.0065L70.5485 27.1103H66.5937L66.4726 31.0065H70.4275ZM70.2663 36.1932L70.3873 32.297H66.4325L66.3114 36.1932H70.2663ZM73.5167 42.8213L73.6828 37.4768H70.9134L70.7473 42.8213H73.5167Z" fill="#369A30"/>
<path d="M64.0874 24.2557L62.7138 22.8816L79.719 14.0441L81.0926 15.4183L64.0874 24.2557Z" fill="#754D2A"/>
<path d="M64.6279 25.3078L63.2542 23.9336L62.7138 22.8816L64.0874 24.2557L64.6279 25.3078Z" fill="#6F4928"/>
<path d="M81.0926 15.4182L80.9891 16.8035L80.2257 17.2003L65.3877 24.9128L64.6279 25.3077L64.0874 24.2557L81.0926 15.4182Z" fill="#895A33"/>
<path d="M54.4233 42.8795L53.0497 41.5054L53.2158 36.1608L54.5894 37.535L54.4233 42.8795Z" fill="#236B20"/>
<path d="M60.2983 31.4926L58.9246 30.1184L58.4416 29.6274L59.8152 31.0016L60.2983 31.4926Z" fill="#6F4928"/>
<path d="M58.6929 35.9568L57.3193 34.5827L57.4581 30.1184L58.8317 31.4925L58.6929 35.9568Z" fill="#236B20"/>
<path d="M54.1615 35.9568L52.7878 34.5827H57.3193L58.6929 35.9568H54.1615Z" fill="#2C7F27"/>
<path d="M54.5894 37.5349L54.4233 42.8795H51.2587L51.4248 37.5349H54.5894Z" fill="#895A33"/>
<path d="M51.2587 42.8795L49.8851 41.5054L50.0512 36.1608L51.4248 37.535L51.2587 42.8795Z" fill="#6F4928"/>
<path d="M51.4248 37.535L50.0512 36.1608H53.2158L54.5894 37.535H51.4248Z" fill="#7A502C"/>
<path d="M52.3389 35.9568L50.9652 34.5827L51.104 30.1184L52.4776 31.4925L52.3389 35.9568Z" fill="#236B20"/>
<path d="M47.8074 35.9568L46.4338 34.5827H50.9653L52.3389 35.9568H47.8074Z" fill="#2C7F27"/>
<path d="M53.2538 29.5392L51.8802 28.165C51.943 28.165 52.0048 28.1606 52.0654 28.1521L53.439 29.5262C53.3784 29.5347 53.3166 29.5392 53.2538 29.5392Z" fill="#2A7B26"/>
<path d="M53.439 29.5262L52.0654 28.1521C52.1261 28.1436 52.1855 28.1309 52.2434 28.1144L53.617 29.4886C53.5591 29.505 53.4997 29.5177 53.439 29.5262Z" fill="#297925"/>
<path d="M53.617 29.4886L52.2434 28.1145C52.3006 28.0982 52.3563 28.0781 52.4103 28.0547L53.7839 29.4288C53.73 29.4523 53.6742 29.4723 53.617 29.4886Z" fill="#287624"/>
<path d="M53.7839 29.4288L52.4103 28.0547C52.468 28.0296 52.5236 28.0005 52.5768 27.9679L53.9504 29.342C53.8972 29.3747 53.8416 29.4037 53.7839 29.4288Z" fill="#277323"/>
<path d="M53.9504 29.342L52.5768 27.9679C52.641 27.9285 52.7017 27.8839 52.7581 27.8347L54.1317 29.2089C54.0753 29.2581 54.0146 29.3027 53.9504 29.342Z" fill="#257022"/>
<path d="M54.1317 29.2088L52.7581 27.8347C53.024 27.603 53.1966 27.2693 53.2082 26.899C53.2191 26.5457 53.0827 26.2271 52.8536 25.9979L54.2272 27.372C54.4563 27.6012 54.5928 27.9198 54.5818 28.2732C54.5703 28.6434 54.3976 28.9771 54.1317 29.2088Z" fill="#246D21"/>
<path d="M52.364 29.1747L50.9904 27.8006C51.0236 27.8338 51.0587 27.8651 51.0956 27.8944L52.4692 29.2686C52.4324 29.2393 52.3972 29.2079 52.364 29.1747Z" fill="#2C7E27"/>
<path d="M52.4692 29.2686L51.0956 27.8945C51.2332 28.0037 51.3952 28.0846 51.5732 28.1282L52.9468 29.5024C52.7689 29.4587 52.6068 29.3778 52.4692 29.2686Z" fill="#2D8028"/>
<path d="M52.9468 29.5023L51.5731 28.1282C51.6643 28.1506 51.7597 28.1632 51.858 28.1648L53.2317 29.539C53.1333 29.5373 53.038 29.5247 52.9468 29.5023Z" fill="#2C7E27"/>
<path d="M53.2317 29.539L51.858 28.1649C51.8654 28.165 51.8728 28.165 51.8802 28.165L53.2538 29.5392C53.2464 29.5392 53.239 29.5391 53.2317 29.539Z" fill="#2A7B26"/>
<path d="M59.8152 31.0016L58.4415 29.6275L52.0371 23.1186L53.4107 24.4928L59.8152 31.0016Z" fill="#6F4928"/>
<path d="M49.9767 27.7769L48.6031 26.4027L52.037 23.1186L53.4107 24.4928L49.9767 27.7769Z" fill="#257022"/>
<path d="M49.9434 28.8483L48.5698 27.4742L48.6031 26.4027L49.9767 27.7769L49.9434 28.8483Z" fill="#236B20"/>
<path d="M48.8564 28.8483L47.4828 27.4742H48.5698L49.9434 28.8483H48.8564Z" fill="#2C7F27"/>
<path d="M48.8564 28.8483L47.4828 27.4742L48.6031 26.4027L49.9767 27.7769L48.8564 28.8483Z" fill="#257022"/>
<path d="M49.9434 28.8483H48.8564L49.9767 27.7769L49.9434 28.8483Z" fill="#369A30"/>
<path d="M46.6015 31.0048L45.2279 29.6307L47.4828 27.4742L48.8564 28.8483L46.6015 31.0048Z" fill="#257022"/>
<path d="M46.2324 42.8795L44.8588 41.5054L45.2279 29.6307L46.6015 31.0048L46.2324 42.8795Z" fill="#236B20"/>
<path d="M53.4107 24.4927L59.8152 31.0016L59.446 42.8795H54.4233L54.5894 37.5349H51.4248L51.2587 42.8795H46.2325L46.6015 31.0048L48.8564 28.8483H49.9434L49.9767 27.7768L53.4107 24.4927ZM52.3389 35.9568L52.4776 31.4925H47.9462L47.8074 35.9568H52.3389ZM58.6929 35.9568L58.8317 31.4925H54.3002L54.1615 35.9568H58.6929ZM53.2538 29.5392C53.9658 29.5392 54.5601 28.9711 54.5818 28.2732C54.6036 27.5718 54.0445 27.0072 53.3325 27.0072C52.6242 27.0072 52.0299 27.5718 52.0081 28.2732C51.9864 28.9711 52.5455 29.5392 53.2538 29.5392Z" fill="#369A30"/>
<path d="M50.022 26.3198L48.6484 24.9457L52.0823 21.6632L53.4559 23.0374L50.022 26.3198Z" fill="#724B29"/>
<path d="M48.0483 28.2065L46.6747 26.8324L48.6484 24.9457L50.022 26.3198L48.0483 28.2065Z" fill="#724B29"/>
<path d="M45.3738 30.7631L44.0002 29.389L46.6746 26.8325L48.0483 28.2066L45.3738 30.7631Z" fill="#724B29"/>
<path d="M46.0916 31.4926L44.7179 30.1184L44.0002 29.389L45.3738 30.7631L46.0916 31.4926Z" fill="#6F4928"/>
<path d="M53.4559 23.0374L54.1737 23.7668L61.0614 30.7631L60.2983 31.4925L59.8152 31.0016L53.4107 24.4928L49.9768 27.7769L48.8564 28.8483L46.6015 31.0048L46.0916 31.4925L45.3738 30.7631L48.0483 28.2066L50.022 26.3199L53.4559 23.0374Z" fill="#895A33"/>
<path d="M48.171 24.2578H50.0861L50.022 26.3198L48.0483 28.2065L48.171 24.2578Z" fill="#369A30"/>
<path d="M48.171 24.2578L46.7974 22.8836H48.7125L50.0861 24.2578H48.171Z" fill="#2C7F27"/>
<path d="M48.0483 28.2066L46.6747 26.8324L46.7974 22.8836L48.171 24.2578L48.0483 28.2066Z" fill="#236B20"/>
<path d="M114.579 42.9718L113.205 41.5976L113.372 36.2356L114.746 37.6097L114.579 42.9718Z" fill="#236B20"/>
<path d="M119.008 36.9785L117.635 35.6043L117.748 31.9677L119.121 33.3418L119.008 36.9785Z" fill="#236B20"/>
<path d="M114.765 36.9785L113.392 35.6043H117.635L119.008 36.9785H114.765Z" fill="#2C7F27"/>
<path d="M112.045 42.9718L110.671 41.5976L110.838 36.2356L112.211 37.6097L112.045 42.9718Z" fill="#6F4928"/>
<path d="M114.746 37.6097L114.579 42.9718H112.045L112.211 37.6097H114.746Z" fill="#895A33"/>
<path d="M112.211 37.6097L110.838 36.2356H113.372L114.746 37.6097H112.211Z" fill="#7A502C"/>
<path d="M119.171 31.7602L117.797 30.3861L117.91 26.7494L119.284 28.1235L119.171 31.7602Z" fill="#236B20"/>
<path d="M114.927 31.7602L113.554 30.386H117.797L119.171 31.7602H114.927Z" fill="#2C7F27"/>
<path d="M122.166 26.079L120.793 24.7048L119.796 23.6913L121.169 25.0655L122.166 26.079Z" fill="#6F4928"/>
<path d="M121.169 25.0655L119.796 23.6914L119.802 23.4774L121.176 24.8516L121.169 25.0655Z" fill="#6F4928"/>
<path d="M112.231 36.9785L110.857 35.6043L110.97 31.9677L112.344 33.3418L112.231 36.9785Z" fill="#236B20"/>
<path d="M107.536 36.9785L106.162 35.6043H110.857L112.231 36.9785H107.536Z" fill="#2C7F27"/>
<path d="M112.393 31.7602L111.019 30.3861L111.132 26.7494L112.506 28.1235L112.393 31.7602Z" fill="#236B20"/>
<path d="M107.698 31.7602L106.324 30.386H111.019L112.393 31.7602H107.698Z" fill="#2C7F27"/>
<path d="M112.89 23.9662L111.516 22.5921C111.551 22.6267 111.588 22.6594 111.626 22.69L113 24.0641C112.961 24.0335 112.925 24.0009 112.89 23.9662Z" fill="#2C7E27"/>
<path d="M113 24.0641L111.626 22.69C111.77 22.804 111.939 22.8883 112.125 22.9339L113.498 24.3081C113.312 24.2625 113.143 24.1781 113 24.0641Z" fill="#2D8028"/>
<path d="M113.498 24.308L112.125 22.9339C112.22 22.9573 112.32 22.9705 112.423 22.9722L113.796 24.3464C113.693 24.3446 113.594 24.3315 113.498 24.308Z" fill="#2C7E27"/>
<path d="M113.796 24.3464L112.423 22.9723C112.43 22.9724 112.438 22.9725 112.446 22.9725L113.819 24.3466C113.812 24.3466 113.804 24.3465 113.796 24.3464Z" fill="#2A7B26"/>
<path d="M113.819 24.3466L112.446 22.9724C112.511 22.9724 112.575 22.9679 112.638 22.959L114.011 24.3332C113.949 24.342 113.884 24.3466 113.819 24.3466Z" fill="#2A7B26"/>
<path d="M114.011 24.3331L112.638 22.959C112.701 22.9502 112.762 22.9371 112.822 22.92L114.196 24.2942C114.136 24.3112 114.074 24.3243 114.011 24.3331Z" fill="#297925"/>
<path d="M114.196 24.2942L112.822 22.92C112.881 22.9032 112.939 22.8824 112.995 22.8582L114.368 24.2323C114.313 24.2566 114.255 24.2773 114.196 24.2942Z" fill="#287624"/>
<path d="M114.368 24.2323L112.995 22.8582C113.054 22.8322 113.112 22.8022 113.167 22.7684L114.541 24.1425C114.486 24.1763 114.428 24.2064 114.368 24.2323Z" fill="#277323"/>
<path d="M114.541 24.1425L113.167 22.7683C113.234 22.7275 113.297 22.6812 113.355 22.6302L114.729 24.0043C114.67 24.0554 114.607 24.1016 114.541 24.1425Z" fill="#257022"/>
<path d="M114.729 24.0043L113.355 22.6301C113.633 22.3881 113.813 22.0386 113.825 21.6503C113.837 21.2819 113.695 20.9493 113.456 20.7103L114.829 22.0845C115.068 22.3235 115.21 22.6561 115.199 23.0245C115.187 23.4127 115.007 23.7623 114.729 24.0043Z" fill="#246D21"/>
<path d="M106.014 42.9718L104.641 41.5976L105.197 23.6909L106.571 25.0651L106.014 42.9718Z" fill="#236B20"/>
<path d="M121.176 24.8516L119.802 23.4775L112.732 16.2953L114.105 17.6695L121.176 24.8516Z" fill="#6F4928"/>
<path d="M106.578 24.8516L105.204 23.4775L112.732 16.2953L114.105 17.6695L106.578 24.8516Z" fill="#257022"/>
<path d="M114.105 17.6695L121.176 24.8516L121.169 25.0655L120.613 42.9718H114.579L114.746 37.6098H112.211L112.045 42.9718H106.014L106.571 25.0651L106.578 24.8516L114.105 17.6695ZM112.393 31.7602L112.506 28.1236H107.811L107.698 31.7602H112.393ZM112.231 36.9785L112.344 33.3419H107.649L107.536 36.9785H112.231ZM119.008 36.9785L119.121 33.3419H114.878L114.765 36.9785H119.008ZM119.171 31.7602L119.284 28.1236H115.04L114.927 31.7602H119.171ZM113.819 24.3466C114.56 24.3466 115.176 23.754 115.199 23.0245C115.222 22.2951 114.642 21.7059 113.902 21.7059C113.161 21.7059 112.541 22.2951 112.519 23.0245C112.496 23.754 113.079 24.3466 113.819 24.3466Z" fill="#369A30"/>
<path d="M106.571 25.065L105.197 23.6909L105.204 23.4774L106.578 24.8516L106.571 25.065Z" fill="#236B20"/>
<path d="M104.672 25.2233L103.299 23.8491L112.771 14.7943L114.145 16.1684L104.672 25.2233Z" fill="#724B29"/>
<path d="M114.145 16.1685L114.987 17.0206L123.058 25.2233L122.166 26.079L121.169 25.0655L121.176 24.8516L114.105 17.6694L106.578 24.8516L106.571 25.0651L105.511 26.079L104.672 25.2233L114.145 16.1685Z" fill="#895A33"/>
<path d="M105.511 26.079L104.137 24.7049L103.299 23.8492L104.672 25.2233L105.511 26.079Z" fill="#6F4928"/>
</svg>
