<svg width="290" height="281" viewBox="0 0 290 281" fill="none" xmlns="http://www.w3.org/2000/svg">
<path d="M191.778 24.6232C191.778 24.6232 145.193 8.06458 99.4798 34.4302C53.7666 60.7958 30.6679 113.134 10.8786 155.072C-8.91069 197.01 2.46923 239.65 37.3713 259.094C72.2733 278.539 96.0072 249.862 144.969 248.477C193.931 247.091 207.096 254.097 247.727 226.425C288.359 198.752 295.697 133.443 263.651 85.1104C231.604 36.7775 191.778 24.6232 191.778 24.6232Z" fill="#369A30"/>
<path opacity="0.7" d="M191.778 24.6232C191.778 24.6232 145.193 8.06458 99.4798 34.4302C53.7666 60.7958 30.6679 113.134 10.8786 155.072C-8.91069 197.01 2.46923 239.65 37.3713 259.094C72.2733 278.539 96.0072 249.862 144.969 248.477C193.931 247.091 207.096 254.097 247.727 226.425C288.359 198.752 295.697 133.443 263.651 85.1104C231.604 36.7775 191.778 24.6232 191.778 24.6232Z" fill="white"/>
<path d="M68.7946 28.0717H9.49316V107.707H68.7946V28.0717Z" stroke="#676F74" stroke-linecap="round" stroke-linejoin="round"/>
<path d="M63.1137 35.6946H15.168V100.078H63.1137V35.6946Z" stroke="#676F74" stroke-linecap="round" stroke-linejoin="round"/>
<path d="M117.182 75.7271H76.248V130.697H117.182V75.7271Z" stroke="#676F74" stroke-linecap="round" stroke-linejoin="round"/>
<path d="M113.262 80.9905H80.1685V125.433H113.262V80.9905Z" stroke="#676F74" stroke-linecap="round" stroke-linejoin="round"/>
<path d="M243.19 15.76H245.44C255.388 15.76 264.929 19.7119 271.964 26.7463C278.998 33.7807 282.95 43.3214 282.95 53.2696V193.313H205.68V53.2696C205.68 43.3214 209.632 33.7807 216.666 26.7463C223.701 19.7119 233.242 15.76 243.19 15.76V15.76Z" stroke="#676F74" stroke-linecap="round" stroke-linejoin="round"/>
<path d="M214.404 192.896V55.6593C214.404 47.728 217.555 40.1216 223.163 34.5134C228.771 28.9052 236.378 25.7545 244.309 25.7545V25.7545C248.236 25.7545 252.124 26.528 255.752 28.031C259.38 29.5339 262.676 31.7368 265.453 34.5138C268.229 37.2908 270.431 40.5875 271.934 44.2157C273.436 47.8439 274.209 51.7324 274.208 55.6593V192.896" stroke="#676F74" stroke-linecap="round" stroke-linejoin="round"/>
<path d="M244.309 15.76V193.102" stroke="#676F74" stroke-linecap="round" stroke-linejoin="round"/>
<path d="M206.098 49.924H282.412" stroke="#676F74" stroke-linecap="round" stroke-linejoin="round"/>
<path d="M252.107 68.0435L250.51 69.2535" stroke="#676F74" stroke-linecap="round" stroke-linejoin="round"/>
<path d="M272.132 52.8219L255.308 65.6115" stroke="#676F74" stroke-linecap="round" stroke-linejoin="round"/>
<path d="M264.782 62.768L255.701 69.6891" stroke="#676F74" stroke-linecap="round" stroke-linejoin="round"/>
<path d="M235.621 129.499L220.672 141.901" stroke="#676F74" stroke-linecap="round" stroke-linejoin="round"/>
<path d="M241 125.04L238.398 127.194" stroke="#676F74" stroke-linecap="round" stroke-linejoin="round"/>
<path d="M227.593 131.955L217.647 139.741" stroke="#676F74" stroke-linecap="round" stroke-linejoin="round"/>
<path d="M254.237 163.221L252.24 164.818" stroke="#676F74" stroke-linecap="round" stroke-linejoin="round"/>
<path d="M269.537 150.982L257.413 160.68" stroke="#676F74" stroke-linecap="round" stroke-linejoin="round"/>
<path d="M262.616 160.928L256.996 165.254" stroke="#676F74" stroke-linecap="round" stroke-linejoin="round"/>
<path d="M206.098 74.0088H282.412" stroke="#676F74" stroke-linecap="round" stroke-linejoin="round"/>
<path d="M206.098 98.0996H282.412" stroke="#676F74" stroke-linecap="round" stroke-linejoin="round"/>
<path d="M206.098 122.19H282.412" stroke="#676F74" stroke-linecap="round" stroke-linejoin="round"/>
<path d="M206.098 146.275H282.412" stroke="#676F74" stroke-linecap="round" stroke-linejoin="round"/>
<path d="M206.098 170.366H282.412" stroke="#676F74" stroke-linecap="round" stroke-linejoin="round"/>
<path d="M216.304 27.8175L223.225 34.1216" stroke="#676F74" stroke-linecap="round" stroke-linejoin="round"/>
<path d="M272.024 27.8175L265.103 34.1216" stroke="#676F74" stroke-linecap="round" stroke-linejoin="round"/>
<path d="M0.70874 147.164H205.686" stroke="#676F74" stroke-linecap="round" stroke-linejoin="round"/>
<path d="M0.70874 150.776H205.686" stroke="#676F74" stroke-linecap="round" stroke-linejoin="round"/>
<path d="M0.70874 261.49H288.395" stroke="#676F74" stroke-linecap="round" stroke-linejoin="round"/>
<path d="M60.3125 150.643V261.357" stroke="#676F74" stroke-linecap="round" stroke-linejoin="round"/>
<path d="M125.047 150.643V261.357" stroke="#676F74" stroke-linecap="round" stroke-linejoin="round"/>
<path d="M189.781 150.643V261.357" stroke="#676F74" stroke-linecap="round" stroke-linejoin="round"/>
<path d="M254.515 198.438V261.357" stroke="#676F74" stroke-linecap="round" stroke-linejoin="round"/>
<path d="M285.37 193.398H203.696V198.438H285.37V193.398Z" stroke="#676F74" stroke-linecap="round" stroke-linejoin="round"/>
<path d="M0.70874 280.112H289" stroke="#2E363E" stroke-linecap="round" stroke-linejoin="round"/>
<path d="M41.328 133.34C41.328 133.34 41.328 129.959 36.5969 125.227C31.8659 120.496 28.853 117.792 28.853 117.792C28.853 117.792 26.4331 125.566 30.8495 130.297C34.0818 133.627 37.5868 136.681 41.328 139.427V133.34Z" fill="#369A30"/>
<path d="M34.4612 154.449C34.4612 154.449 34.4612 151.067 29.7241 146.336C24.987 141.605 21.9499 138.9 21.9499 138.9C21.9499 138.9 19.5844 146.674 24.013 151.406C27.2452 154.735 30.7503 157.789 34.4914 160.535L34.4612 154.449Z" fill="#369A30"/>
<path d="M41.0314 139.1C41.0314 139.1 41.3883 135.736 46.5913 131.532C51.7942 127.327 55.1096 124.955 55.1096 124.955C55.1096 124.955 56.6402 132.935 51.77 137.182C48.2036 140.151 44.395 142.816 40.384 145.15L41.0314 139.1Z" fill="#369A30"/>
<path d="M32.7309 164.026C32.7309 164.026 33.4388 160.722 39.0592 157.086C44.6795 153.45 48.2127 151.442 48.2127 151.442C48.2127 151.442 48.8963 159.543 43.6087 163.245C39.7548 165.833 35.6912 168.093 31.4604 170.003L32.7309 164.026Z" fill="#369A30"/>
<path d="M34.2979 191.208C34.2979 191.208 34.2979 187.826 39.0289 183.095C43.7599 178.364 46.8031 175.66 46.8031 175.66C46.8031 175.66 49.1625 183.434 44.7703 188.153C41.5404 191.486 38.0374 194.544 34.2979 197.294V191.208Z" fill="#369A30"/>
<path d="M34.2134 197.833C34.2134 197.833 34.6914 194.487 30.6802 189.127C26.6691 183.767 24.0253 180.657 24.0253 180.657C24.0253 180.657 20.5769 188.014 24.2552 193.325C26.9823 197.079 30.0178 200.598 33.3301 203.846L34.2134 197.833Z" fill="#369A30"/>
<path d="M29.5486 217.501C29.5486 217.501 29.5486 214.125 34.2796 209.394C39.0107 204.663 42.0538 201.959 42.0538 201.959C42.0538 201.959 44.4193 209.733 40.0271 214.464C36.794 217.791 33.289 220.843 29.5486 223.587V217.501Z" fill="#369A30"/>
<path d="M32.7066 235.342C32.7066 235.342 31.8475 232.075 35.2295 226.267C38.6114 220.459 40.868 217.102 40.868 217.102C40.868 217.102 45.1029 224.023 42.078 229.716C39.7974 233.76 37.1807 237.605 34.2554 241.211L32.7066 235.342Z" fill="#369A30"/>
<path d="M41.7576 132.493C41.5169 136.013 41.0826 139.518 40.4569 142.99C38.5874 152.67 33.9109 158.889 32.0414 167.619C30.172 176.349 35.5383 187.584 34.1045 198.807C32.6706 210.029 28.3026 216.249 29.5489 223.732C30.7951 231.216 37.323 251.465 37.323 251.465" stroke="#2E363E" stroke-linecap="round" stroke-linejoin="round"/>
<path d="M40.9829 141.344L46.083 137.43" stroke="#2E363E" stroke-linecap="round" stroke-linejoin="round"/>
<path d="M41.2191 136.837L39.0835 133.044" stroke="#2E363E" stroke-linecap="round" stroke-linejoin="round"/>
<path d="M32.3254 167.196C32.3254 167.196 36.5967 163.995 40.9829 160.795" stroke="#2E363E" stroke-linecap="round" stroke-linejoin="round"/>
<path d="M34.4611 160.535C34.4611 160.535 30.9037 153.559 26.8684 148.931" stroke="#2E363E" stroke-linecap="round" stroke-linejoin="round"/>
<path d="M34.4614 196.018C36.8986 191.526 39.9736 187.412 43.5908 183.803" stroke="#2E363E" stroke-linecap="round" stroke-linejoin="round"/>
<path d="M33.6262 200.761C32.333 197.711 30.7869 194.774 29.0041 191.982C26.5115 188.31 26.1545 187.832 26.1545 187.832" stroke="#2E363E" stroke-linecap="round" stroke-linejoin="round"/>
<path d="M29.5486 223.714C30.6273 221.028 31.9116 218.429 33.3903 215.94C34.87 213.633 36.5373 211.451 38.3754 209.418" stroke="#2E363E" stroke-linecap="round" stroke-linejoin="round"/>
<path d="M34.2494 241.217C34.2494 241.217 33.7472 237.157 35.5077 233.727C37.2683 230.296 39.3011 225.783 40.1359 224.005" stroke="#2E363E" stroke-linecap="round" stroke-linejoin="round"/>
<path d="M10.34 178.473C10.34 178.473 9.97097 176.349 12.4272 172.871C14.8835 169.392 16.4928 167.365 16.4928 167.365C16.4928 167.365 18.822 171.981 16.5775 175.424C14.9149 177.864 13.0489 180.159 10.9995 182.284L10.34 178.473Z" fill="#369A30"/>
<path d="M16.9347 190.99C16.9347 190.99 16.5717 188.867 19.022 185.388C21.4722 181.909 23.0936 179.883 23.0936 179.883C23.0936 179.883 25.4167 184.499 23.1783 187.941C21.5138 190.382 19.6479 192.678 17.6002 194.808L16.9347 190.99Z" fill="#369A30"/>
<path d="M11.151 182.103C11.151 182.103 10.546 180.034 6.8434 177.965C3.14085 175.896 0.793477 174.764 0.793477 174.764C0.793477 174.764 0.696678 179.937 4.21169 182.067C6.77071 183.541 9.44797 184.799 12.2157 185.83L11.151 182.103Z" fill="#369A30"/>
<path d="M19.0579 196.804C19.0579 196.804 18.2532 194.808 14.3389 193.138C10.4246 191.468 7.98047 190.573 7.98047 190.573C7.98047 190.573 8.43421 195.727 12.1489 197.476C14.8485 198.672 17.6431 199.642 20.5038 200.374L19.0579 196.804Z" fill="#369A30"/>
<path d="M21.0304 214.022C21.0304 214.022 20.6674 211.899 17.1826 209.448C13.6979 206.998 11.5018 205.625 11.5018 205.625C11.5018 205.625 10.8605 210.761 14.1335 213.248C16.5193 214.986 19.047 216.52 21.6898 217.834L21.0304 214.022Z" fill="#369A30"/>
<path d="M21.7989 218.172C21.7989 218.172 21.1394 216.128 23.0693 212.328C24.9993 208.529 26.3182 206.278 26.3182 206.278C26.3182 206.278 29.2766 210.513 27.5281 214.246C26.2258 216.895 24.704 219.431 22.9786 221.827L21.7989 218.172Z" fill="#369A30"/>
<path d="M27.7399 235.27C27.7399 235.27 27.9879 233.134 31.3214 230.484C34.6549 227.834 36.7664 226.346 36.7664 226.346C36.7664 226.346 37.6981 231.434 34.5763 234.108C32.2891 235.977 29.8506 237.652 27.2861 239.117L27.7399 235.27Z" fill="#369A30"/>
<path d="M26.8623 229.994C26.8623 229.994 26.4932 227.877 23.0145 225.42C19.5358 222.964 17.3579 221.603 17.3579 221.603C17.3579 221.603 16.7166 226.733 19.9835 229.226C22.3736 230.96 24.903 232.494 27.5459 233.812L26.8623 229.994Z" fill="#369A30"/>
<path d="M26.8143 241.513C26.8143 241.513 26.9958 239.371 24.2491 236.117C21.5024 232.862 19.7238 230.986 19.7238 230.986C19.7238 230.986 17.8059 235.784 20.3288 239.021C22.1984 241.306 24.2565 243.431 26.4815 245.373L26.8143 241.513Z" fill="#369A30"/>
<path d="M9.97705 178.001C10.5045 180.18 11.1508 182.329 11.913 184.438C14.1394 190.294 17.7452 193.701 19.8687 198.958C21.9922 204.215 19.8687 211.862 21.962 218.741C24.0552 225.62 27.4916 229.026 27.5218 233.866C27.5521 238.706 25.6464 252.113 25.6464 252.113" stroke="#2E363E" stroke-linecap="round" stroke-linejoin="round"/>
<path d="M11.423 183.476L7.79907 181.576" stroke="#2E363E" stroke-linecap="round" stroke-linejoin="round"/>
<path d="M10.7876 180.675L11.7132 178.068" stroke="#2E363E" stroke-linecap="round" stroke-linejoin="round"/>
<path d="M19.657 198.752C19.657 198.752 16.632 197.203 13.5344 195.673" stroke="#2E363E" stroke-linecap="round" stroke-linejoin="round"/>
<path d="M17.6001 194.808C18.4856 191.997 19.6573 189.284 21.097 186.713" stroke="#2E363E" stroke-linecap="round" stroke-linejoin="round"/>
<path d="M21.4478 217.053C19.4322 214.504 17.0558 212.262 14.3936 210.398" stroke="#2E363E" stroke-linecap="round" stroke-linejoin="round"/>
<path d="M22.4822 219.939C22.9645 217.886 23.6161 215.877 24.4303 213.931C25.5918 211.354 25.7673 211.021 25.7673 211.021" stroke="#2E363E" stroke-linecap="round" stroke-linejoin="round"/>
<path d="M27.3706 237.55C27.3706 237.55 29.7906 234.61 31.2668 233.509C32.1681 232.845 33.0139 232.108 33.7956 231.307" stroke="#2E363E" stroke-linecap="round" stroke-linejoin="round"/>
<path d="M27.5339 233.89C26.5648 232.323 25.4766 230.832 24.2791 229.431C23.1016 228.145 21.8208 226.957 20.4495 225.88" stroke="#2E363E" stroke-linecap="round" stroke-linejoin="round"/>
<path d="M26.4873 245.373C26.3627 243.738 25.8051 242.166 24.8719 240.817C23.3837 238.857 21.6292 236.25 20.9153 235.221" stroke="#2E363E" stroke-linecap="round" stroke-linejoin="round"/>
<path d="M44.1893 262.379C44.2712 257.895 42.9026 253.505 40.2871 249.862H22.1374C19.5293 253.504 18.1632 257.889 18.2412 262.367C18.2412 269.833 21.7078 276.197 26.5841 278.702V280.112H36.0098V278.726H35.8404C40.7227 276.209 44.1893 269.827 44.1893 262.379Z" fill="#2E363E" stroke="#2E363E" stroke-linecap="round" stroke-linejoin="round"/>
<path d="M130.51 102.57H109.42V110.32H130.51V102.57Z" fill="#545454"/>
<path d="M130.516 102.57H110.636V110.32H130.516V102.57Z" fill="#2E363E"/>
<path d="M130.516 102.57H110.636V104.367H130.516V102.57Z" fill="#545454"/>
<path d="M120.975 109.564H113.026L174.584 280.112H182.533L120.975 109.564Z" fill="#545454"/>
<path d="M122.415 109.564H114.466L176.024 280.112H183.973L122.415 109.564Z" fill="#2E363E"/>
<path d="M184.966 258.616H170.155V261.768H184.966V258.616Z" fill="white" stroke="#2E363E" stroke-miterlimit="10"/>
<path d="M172.872 225.275H158.062V228.427H172.872V225.275Z" fill="white" stroke="#2E363E" stroke-miterlimit="10"/>
<path d="M160.778 191.94H145.968V195.092H160.778V191.94Z" fill="white" stroke="#2E363E" stroke-miterlimit="10"/>
<path d="M148.684 158.599H133.874V161.751H148.684V158.599Z" fill="white" stroke="#2E363E" stroke-miterlimit="10"/>
<path d="M136.59 125.258H121.78V128.41H136.59V125.258Z" fill="white" stroke="#2E363E" stroke-miterlimit="10"/>
<path d="M137.225 138.38L147.577 131.084L151.17 104.331C151.17 104.331 140.389 127.049 138.962 129.789C137.534 132.53 137.225 138.38 137.225 138.38Z" fill="#2E363E" stroke="#2E363E" stroke-miterlimit="10"/>
<path d="M160.687 212.752C160.687 212.752 158.339 216.442 152.423 216.739C149.543 216.884 148.538 217.604 148.393 219.328C148.248 221.052 149.688 222.063 152.707 223.067C155.726 224.071 161.05 224.791 163.639 224.936C166.228 225.082 169.961 225.947 170.397 224.077C170.832 222.208 171.692 217.604 171.692 217.174C171.692 216.745 160.687 212.752 160.687 212.752Z" fill="#2E363E" stroke="#2E363E" stroke-miterlimit="10"/>
<path d="M147.474 125.191C146.717 134.557 145.852 146.826 145.852 153.947C145.852 166.603 150.456 177.965 152.181 182.133C153.905 186.302 156.881 195.026 157.02 195.6C157.16 196.175 158.606 204.227 159.18 206.242C159.755 208.257 160.039 209.697 160.039 209.697C160.039 209.697 158.46 212.722 158.46 214.01C158.46 215.299 160.233 213.448 160.233 213.448C162.632 214.317 165.083 215.036 167.572 215.601C171.45 216.466 172.411 218.959 172.411 218.959C172.411 218.959 172.672 216.164 172.962 203.943C173.252 191.722 165.986 167.583 165.986 163.868C165.986 160.154 168.715 127.775 168.715 127.775C168.715 127.775 153.62 127.92 149.016 125.766L147.474 125.191Z" fill="#5C5C5C" stroke="#2E363E" stroke-miterlimit="10"/>
<path d="M169.532 215.589C169.532 215.589 165.793 218.009 164.643 218.614C163.494 219.219 158.593 220.199 158.17 221.349C157.746 222.498 158.46 224.513 158.46 224.513C158.46 224.513 168.092 226.382 172.551 226.667C177.009 226.951 183.047 227.387 183.767 226.667C184.487 225.947 184.342 218.33 184.342 218.33C184.342 218.33 171.831 214.585 169.532 215.589Z" fill="#2E363E" stroke="#2E363E" stroke-miterlimit="10"/>
<path d="M159.531 143.02C159.531 143.02 161.401 166.174 162.556 170.197C163.712 174.22 170.131 196.036 170.421 198.764C170.7 201.103 170.795 203.459 170.706 205.813C170.567 206.672 169.847 207.682 169.701 209.836C169.556 211.99 169.556 215.589 169.556 215.589C171.277 215.873 172.905 216.564 174.305 217.604C176.604 219.328 180.355 219.758 182.213 219.473C184.07 219.189 184.366 219.328 184.366 218.324V214.585C184.366 211.85 184.082 209.406 184.366 204.373C184.651 199.339 182.836 183.712 181.946 179.114C181.057 174.516 178.353 168.327 178.208 166.458C178.062 164.588 181.233 149.633 181.233 144.745C181.233 139.856 180.374 128.355 180.374 128.355L161.824 127.92" fill="#5C5C5C"/>
<path d="M159.531 143.02C159.531 143.02 161.401 166.174 162.556 170.197C163.712 174.22 170.131 196.036 170.421 198.764C170.7 201.103 170.795 203.459 170.706 205.813C170.567 206.672 169.847 207.682 169.701 209.836C169.556 211.99 169.556 215.589 169.556 215.589C171.277 215.873 172.905 216.564 174.305 217.604C176.604 219.328 180.355 219.758 182.213 219.473C184.07 219.189 184.366 219.328 184.366 218.324V214.585C184.366 211.85 184.082 209.406 184.366 204.373C184.651 199.339 182.836 183.712 181.946 179.114C181.057 174.516 178.353 168.327 178.208 166.458C178.062 164.588 181.233 149.633 181.233 144.745C181.233 139.856 180.374 128.355 180.374 128.355L161.824 127.92" stroke="#2E363E" stroke-miterlimit="10"/>
<path d="M164.45 75.2309L160.469 75.4124C160.469 75.4124 152.513 88.0689 151.061 96.7505C149.609 105.432 147.087 127.883 147.087 127.883C147.087 127.883 151.794 129.511 161.377 129.698C170.96 129.886 180.186 129.335 180.186 129.335C180.186 129.335 184.881 104.712 186.508 94.4031C188.135 84.0941 185.244 81.7467 182.346 79.2118C180.514 77.6553 178.349 76.5416 176.017 75.9569L164.45 75.2309Z" fill="#2E363E" stroke="#2E363E" stroke-miterlimit="10"/>
<path d="M147.431 123.54C151.572 124.959 155.901 125.752 160.275 125.893C167.324 126.075 180.712 125.53 180.712 125.53V130.412L173.452 130.775C173.452 130.775 173.452 145.065 173.271 145.604C173.089 146.142 174.172 146.693 167.124 146.693C160.076 146.693 153.378 145.428 153.016 143.976C152.653 142.524 154.225 130.267 154.225 130.267L147.02 127.883L147.431 123.54Z" fill="white" stroke="#2E363E" stroke-miterlimit="10"/>
<path d="M160.179 129.051L157.014 128.997L157.123 122.596C157.133 122.176 157.308 121.777 157.611 121.486C157.913 121.194 158.319 121.035 158.739 121.041V121.041C159.157 121.051 159.556 121.225 159.847 121.526C160.138 121.827 160.298 122.231 160.293 122.65L160.179 129.051Z" fill="white" stroke="#2E363E" stroke-miterlimit="10"/>
<path d="M158.666 128.888L158.479 139.348" stroke="#2E363E" stroke-miterlimit="10"/>
<path d="M160.595 128.786L156.464 128.712L156.439 130.091L160.571 130.165L160.595 128.786Z" fill="white" stroke="#2E363E" stroke-miterlimit="10"/>
<path d="M158.521 128.011C158.436 128.015 158.352 128.001 158.273 127.971C158.194 127.941 158.122 127.894 158.062 127.834C158.002 127.774 157.956 127.702 157.925 127.623C157.895 127.544 157.881 127.46 157.886 127.375V122.814C157.886 122.732 157.902 122.65 157.935 122.575C157.967 122.499 158.014 122.431 158.074 122.375C158.133 122.318 158.203 122.274 158.28 122.246C158.357 122.217 158.439 122.205 158.521 122.209V122.209C158.603 122.205 158.685 122.217 158.762 122.246C158.839 122.274 158.909 122.318 158.969 122.375C159.028 122.431 159.075 122.499 159.108 122.575C159.14 122.65 159.156 122.732 159.156 122.814V127.351C159.164 127.438 159.153 127.525 159.125 127.607C159.096 127.689 159.05 127.764 158.99 127.826C158.929 127.889 158.856 127.938 158.775 127.969C158.695 128.001 158.608 128.015 158.521 128.011V128.011Z" fill="white" stroke="#2E363E" stroke-miterlimit="10"/>
<path d="M166.858 130.533L163.688 130.473L163.803 124.078C163.806 123.87 163.85 123.665 163.933 123.474C164.015 123.283 164.135 123.111 164.284 122.966C164.434 122.822 164.61 122.708 164.804 122.632C164.997 122.556 165.204 122.519 165.412 122.523V122.523C165.62 122.526 165.826 122.569 166.017 122.652C166.208 122.734 166.381 122.853 166.525 123.003C166.67 123.153 166.784 123.33 166.859 123.524C166.935 123.717 166.972 123.924 166.967 124.133L166.858 130.533Z" fill="white" stroke="#2E363E" stroke-miterlimit="10"/>
<path d="M165.345 130.37L165.158 140.83" stroke="#2E363E" stroke-miterlimit="10"/>
<path d="M167 130.67L162.868 130.587L162.841 131.966L166.973 132.049L167 130.67Z" fill="white" stroke="#2E363E" stroke-width="1.0002" stroke-miterlimit="10"/>
<path d="M165.2 129.469C165.03 129.469 164.867 129.401 164.747 129.281C164.627 129.16 164.559 128.997 164.559 128.827V124.296C164.559 124.212 164.576 124.128 164.608 124.05C164.64 123.973 164.687 123.902 164.747 123.842C164.806 123.783 164.877 123.736 164.955 123.703C165.033 123.671 165.116 123.655 165.2 123.655V123.655C165.369 123.656 165.531 123.724 165.65 123.844C165.769 123.965 165.836 124.127 165.836 124.296V128.864C165.826 129.026 165.756 129.179 165.638 129.292C165.52 129.404 165.363 129.467 165.2 129.469V129.469Z" fill="white" stroke="#2E363E" stroke-miterlimit="10"/>
<path d="M154.837 131.344C156.957 131.912 159.161 132.097 161.347 131.888L160.784 145.803C160.784 145.803 156.107 146.796 153.554 143.674L154.837 131.344Z" fill="white" stroke="#2E363E" stroke-miterlimit="10"/>
<path d="M161.346 131.888C161.346 131.888 164.184 133.31 169.853 132.457L170.56 146.203C170.56 146.203 164.892 148.187 160.784 145.779L161.346 131.888Z" fill="white" stroke="#2E363E" stroke-miterlimit="10"/>
<path d="M149.089 94.7238C149.089 94.7238 137.528 94.996 136.009 94.4455C134.491 93.895 135.186 91.0031 136.287 84.5357C137.389 78.0683 144.267 55.6231 144.267 55.6231C144.267 55.6231 141.932 53.1487 141.793 51.7693C141.654 50.3899 142.894 45.3019 142.894 45.3019C142.894 45.3019 140.413 46.403 139.73 45.7133C139.046 45.0236 141.793 42.4101 141.793 42.4101C141.793 42.4101 144.406 41.5812 146.197 42.8215C147.988 44.0617 149.779 46.1247 150.051 48.7443C150.323 51.364 149.5 57.0025 148.811 61.1346C148.121 65.2667 146.887 79.9922 146.887 79.9922C146.887 79.9922 153.082 75.9993 155.006 75.1523C157.694 73.9967 160.664 73.662 163.542 74.1903C163.542 74.1903 161.201 84.5176 159.967 88.1052C158.733 91.6928 150.989 108.36 147.825 115.657C144.661 122.953 137.225 138.374 137.225 138.374C137.225 138.374 136.124 132.324 139.427 123.642C142.731 114.961 149.089 94.7238 149.089 94.7238Z" fill="#B2B2B2" stroke="#2E363E" stroke-miterlimit="10"/>
<path d="M142.973 57.5954L150.021 58.5997L149.017 62.7681L142.253 61.4734L142.973 57.5954Z" fill="white" stroke="#2E363E" stroke-miterlimit="10"/>
<path d="M141.823 60.1847L150.293 61.7638L147.873 78.4434C147.873 78.4434 153.318 75.4184 155.926 74.5594C158.533 73.7003 162.69 74.5594 162.69 74.5594C162.69 74.5594 163.742 75.727 162.496 78.7943C161.25 81.8616 157.656 93.8102 155.926 98.1541C154.195 102.498 136.663 140.292 136.663 140.292C136.663 140.292 135.943 134.109 137.528 129.22C139.113 124.332 148.164 94.6996 148.164 94.6996C148.164 94.6996 137.092 95.4195 135.798 94.99C134.503 94.5604 134.648 89.9564 134.787 88.8069C134.926 87.6574 141.823 60.1847 141.823 60.1847Z" fill="#369A30" stroke="#2E363E" stroke-miterlimit="10"/>
<path d="M148.23 109.891L162.677 74.5594L159.725 74.2206L145.859 108.959L144.213 108.415C143.935 109.28 143.439 110.69 143.148 111.591L144.636 112.638L147.825 115.663C148.508 114.241 149.706 111.845 150.342 110.526L148.23 109.891Z" fill="white" stroke="#2E363E" stroke-miterlimit="10"/>
<path d="M161.643 48.7686C161.643 48.7686 164.438 42.761 167.511 41.2243C170.585 39.6876 176.175 41.92 176.175 41.92C176.175 41.92 183.58 45.1326 185.546 50.1661C187.512 55.1996 184.009 64.4197 184.009 64.4197L161.225 49.7487L161.643 48.7686Z" fill="white" stroke="#2E363E" stroke-miterlimit="10"/>
<path d="M169.048 48.0546C169.634 47.0402 170.142 45.9824 170.566 44.8905C170.865 43.7997 170.816 42.6431 170.427 41.5812C171.783 41.4574 173.149 41.6457 174.42 42.1318" stroke="#2E363E" stroke-miterlimit="10"/>
<path d="M159.828 55.8954C159.828 55.8954 155.218 51.7028 155.218 50.1661C155.218 48.6294 167.511 47.371 170.445 48.3511C173.38 49.3312 177.705 55.611 179.52 57.426C181.335 59.241 186.78 62.8709 185.667 65.3877C184.554 67.9045 180.918 69.8647 176.592 67.2027C172.266 64.5407 160.136 56.452 160.136 56.452C161.673 55.0544 162.653 56.3128 162.653 56.3128" fill="white"/>
<path d="M159.828 55.8954C159.828 55.8954 155.218 51.7028 155.218 50.1661C155.218 48.6294 167.511 47.371 170.445 48.3511C173.38 49.3312 177.705 55.611 179.52 57.426C181.335 59.241 186.78 62.8709 185.667 65.3877C184.554 67.9045 180.918 69.8647 176.592 67.2027C172.266 64.5407 160.136 56.452 160.136 56.452C161.673 55.0544 162.653 56.3128 162.653 56.3128" stroke="#2E363E" stroke-miterlimit="10"/>
<path d="M181.069 60.6446C181.069 60.6446 175.757 54.3587 171.425 52.5437C167.094 50.7287 162.06 51.9811 160.808 53.3786C159.555 54.7761 157.033 61.4855 156.894 63.5788C156.754 65.672 156.506 72.1031 157.716 72.8049C158.926 73.5067 162.889 73.9181 162.889 73.9181C162.427 76.921 162.194 79.9548 162.193 82.993C162.332 86.6229 164.885 86.508 166.84 85.6671C168.794 84.8261 176.864 76.9854 176.864 75.9872C176.793 74.9543 176.652 73.9274 176.441 72.9138L178.123 68.2977C178.123 68.2977 183.441 65.1155 181.069 60.6446Z" fill="#B2B2B2" stroke="#2E363E" stroke-miterlimit="10"/>
<path d="M174.469 54.3526C174.912 55.1325 175.208 55.9879 175.34 56.8754C175.34 57.9886 174.081 64.4197 174.081 64.4197C174.081 64.4197 175.618 65.2546 176.035 63.9962C176.453 62.7378 177.016 59.5253 181.069 60.6445C179.081 58.335 176.87 56.2275 174.469 54.3526V54.3526Z" fill="#2E363E" stroke="#2E363E" stroke-miterlimit="10"/>
<path d="M163.04 63.5788C162.623 63.4396 159.41 62.3204 159.271 61.4855C159.132 60.6506 163.18 57.432 163.18 57.432V56.0345C163.18 56.0345 161.97 54.9032 160.106 56.452" stroke="#2E363E" stroke-miterlimit="10"/>
<path d="M161.346 63.3005C161.346 63.3005 156.736 62.3204 157.432 65.2546C157.65 66.1681 162.327 66.9365 163.863 67.0696C165.4 67.2027 169.169 67.3479 168.473 65.6721C167.777 63.9962 163.161 62.883 161.346 63.3005Z" fill="#2E363E" stroke="#2E363E" stroke-miterlimit="10"/>
<path d="M166.676 56.5911C166.676 56.5911 169.889 54.9152 171.286 57.8495" stroke="#2E363E" stroke-miterlimit="10"/>
<path d="M169.32 59.3559C169.211 60.0456 168.812 60.5659 168.431 60.4873C168.05 60.4086 167.826 59.8218 167.941 59.1381C168.056 58.4545 168.449 57.9281 168.83 58.0068C169.211 58.0854 169.429 58.6844 169.32 59.3559Z" fill="#2E363E"/>
<path d="M161.347 58.2669C161.256 58.8356 160.929 59.2531 160.615 59.1986C160.3 59.1442 160.118 58.6541 160.209 58.0854C160.3 57.5167 160.627 57.1053 160.941 57.1537C161.256 57.2021 161.455 57.7043 161.347 58.2669Z" fill="#2E363E"/>
<path d="M166.791 60.3663C166.791 60.3663 167.487 62.1813 170.143 62.0421" stroke="#2E363E" stroke-miterlimit="10"/>
<path d="M162.901 73.9181L168.213 74.3416L162.484 78.8125L162.901 73.9181Z" fill="#2E363E" stroke="#2E363E" stroke-miterlimit="10"/>
<path d="M176.877 76.0174C176.877 76.0174 169.048 92.9269 167.65 97.4039C166.253 101.881 168.056 121.821 168.056 125.736C168.056 129.65 170.476 148.187 170.476 148.187C170.476 148.187 179 147.207 184.034 144.974C186.781 143.799 189.402 142.348 191.856 140.643L183.852 115.675C183.852 115.675 192.395 93.3504 193.532 88.0386C194.669 82.7268 191.717 79.7926 188.087 78.395C184.457 76.9975 176.877 76.0174 176.877 76.0174Z" fill="#369A30" stroke="#2E363E" stroke-miterlimit="10"/>
<path d="M183.852 115.693L174.705 113.521C174.705 113.521 173.132 102.722 176.568 91.9469C180.004 81.172 184.136 77.4997 184.136 77.4997L179.091 76.5801C179.091 76.5801 174.251 86.9013 171.982 93.0903C169.713 99.2794 170.349 114.441 170.349 114.441L167.475 115.257C167.65 117.169 167.771 118.367 167.935 120.013C170.869 119.22 175.648 118.409 176.774 118.567C177.784 118.712 182.152 119.492 185.243 120.049L183.852 115.693Z" fill="white" stroke="#2E363E" stroke-miterlimit="10"/>
<path d="M140.722 63.8692L138.447 57.2929H133.275L131.206 64.0023C130.731 64.8309 130.483 65.7698 130.486 66.7247C130.485 67.5761 130.682 68.4161 131.06 69.1789C131.438 69.9417 131.987 70.6067 132.665 71.1217C133.343 71.6368 134.131 71.9879 134.967 72.1478C135.804 72.3076 136.666 72.2717 137.486 72.0429C138.306 71.8141 139.062 71.3987 139.695 70.8291C140.327 70.2595 140.82 69.5511 141.133 68.7595C141.447 67.9679 141.573 67.1145 141.501 66.2661C141.43 65.4177 141.163 64.5973 140.722 63.8692V63.8692Z" fill="white" stroke="#2E363E" stroke-miterlimit="10"/>
<path d="M138.586 53.1003H133.275V57.2929H138.586V53.1003Z" fill="#2E363E" stroke="#2E363E" stroke-miterlimit="10"/>
<path d="M135.652 37.4491H132.996V40.2442H135.652V37.4491Z" fill="#2E363E" stroke="#2E363E" stroke-miterlimit="10"/>
<path d="M133.837 39.8268C132.904 41.738 131.729 43.5212 130.34 45.1325C128.386 47.2319 129.506 48.7625 131.042 49.0468C132.579 49.3312 135.235 49.3251 135.235 50.3052V52.9611" stroke="#2E363E" stroke-miterlimit="10"/>
<path d="M134.817 40.3833C134.817 40.3833 130.485 46.1126 130.625 46.9535C130.764 47.7945 135.513 48.6294 136.493 49.0468C137.473 49.4642 137.189 52.9611 137.189 52.9611" stroke="#2E363E" stroke-miterlimit="10"/>
<path d="M133.837 37.5883V0.139221" stroke="#2E363E" stroke-miterlimit="10"/>
<path d="M135.235 6.10352e-05V38.2901" stroke="#2E363E" stroke-miterlimit="10"/>
<path d="M145.992 77.9716L143.898 74.0573C143.898 74.0573 142.501 67.4931 142.501 66.9365C142.501 66.3799 140.686 62.6047 139.984 61.3464C139.282 60.088 138.586 60.2271 138.586 61.6247C138.586 63.0222 139.845 65.3938 139.845 65.8173C139.761 66.3429 139.621 66.8581 139.427 67.3539C139.427 67.3539 133.559 63.1613 132.857 62.4595C132.155 61.7578 130.903 62.7439 130.903 63.5788C130.933 64.296 131.073 65.0042 131.32 65.6781C131.46 66.0956 130.625 69.0298 130.625 70.0099C130.749 71.2597 131.181 72.4592 131.883 73.5007C132.579 74.6199 137.606 76.2957 137.606 76.2957L142.083 82.5816L145.992 77.9716Z" fill="#B2B2B2" stroke="#2E363E" stroke-miterlimit="10"/>
<path d="M149.21 78.9516L145.296 75.7391L139.343 81.5289C139.343 81.5289 143.578 85.9575 143.983 85.9575C144.388 85.9575 149.21 78.9516 149.21 78.9516Z" fill="white" stroke="#2E363E" stroke-miterlimit="10"/>
<path d="M182.328 81.7467L169.889 91.3903L148.369 77.8324L141.66 86.6351C141.66 86.6351 154.516 96.8353 158.848 101.028C163.18 105.22 170.028 109.135 173.368 107.32C176.707 105.505 190.138 95.2986 190.555 94.8811" fill="#369A30"/>
<path d="M182.328 81.7467L169.889 91.3903L148.369 77.8324L141.66 86.6351C141.66 86.6351 154.516 96.8353 158.848 101.028C163.18 105.22 170.028 109.135 173.368 107.32C176.707 105.505 190.138 95.2986 190.555 94.8811" stroke="#2E363E" stroke-miterlimit="10"/>
<path d="M173.102 88.8735C173.102 88.8735 181.069 88.7343 182.467 101.028L188.196 96.8352C188.196 96.8352 186.938 87.0585 177.851 85.5158L173.102 88.8735Z" fill="white" stroke="#2E363E" stroke-miterlimit="10"/>
<path d="M151.443 34.7932H117.908L129.173 21.3805H140.178L151.443 34.7932Z" fill="white" stroke="#2E363E" stroke-miterlimit="10"/>
<path d="M139.845 15.7904H129.173V21.3805H139.845V15.7904Z" fill="white" stroke="#2E363E" stroke-miterlimit="10"/>
<path d="M123.668 31.6593L122.27 33.4622" stroke="#2E363E" stroke-miterlimit="10"/>
<path d="M124.992 29.9412L131.399 21.6709V17.4844" stroke="#2E363E" stroke-miterlimit="10"/>
<path d="M146.288 40.7524C146.288 40.7524 144.921 39.6029 143.917 39.5787C142.912 39.5545 139.887 40.4801 140.378 41.2122C140.868 41.9442 146.288 40.7524 146.288 40.7524Z" fill="#B2B2B2" stroke="#2E363E" stroke-miterlimit="10"/>
<path d="M148.321 42.1075C147.766 41.4946 147.067 41.0289 146.288 40.7523C145.078 40.3833 141.732 41.4904 141.829 42.0954C141.926 42.7004 144.497 42.7912 145.108 42.7004C145.719 42.6097 148.321 42.1075 148.321 42.1075Z" fill="#B2B2B2" stroke="#2E363E" stroke-miterlimit="10"/>
<path d="M151.128 46.9475C151.128 46.9475 150.257 42.2891 149.567 41.672C148.877 41.0549 145.054 42.0108 144.509 42.4343C143.965 42.8578 144.848 43.8137 145.247 43.9226C146.192 43.9888 147.139 44.007 148.085 43.977L148.52 47.0927L151.128 46.9475Z" fill="#B2B2B2" stroke="#2E363E" stroke-miterlimit="10"/>
<path d="M140.716 44.5154L142.707 42.0471L147.692 46.0642C148.018 46.3285 148.226 46.7113 148.27 47.1286C148.314 47.546 148.191 47.9639 147.928 48.2906V48.2906C147.664 48.6167 147.281 48.8246 146.863 48.8688C146.446 48.9131 146.028 48.79 145.701 48.5265L140.716 44.5154Z" fill="white" stroke="#2E363E" stroke-miterlimit="10"/>
<path d="M141.775 43.4204L133.625 36.8563" stroke="#2E363E" stroke-miterlimit="10"/>
<path d="M140.668 45.0049L143.261 41.7873L142.187 40.9219L139.594 44.1395L140.668 45.0049Z" fill="white" stroke="#2E363E" stroke-miterlimit="10"/>
<path d="M146.887 53.6992C146.337 51.6301 148.4 48.466 148.4 48.466C147.562 48.0558 146.776 47.5481 146.058 46.9535C145.375 46.2638 145.375 44.6122 146.337 44.8905C147.299 45.1688 151.013 46.7055 151.013 46.7055C151.435 46.9505 151.768 47.3219 151.967 47.767C152.166 48.2122 152.219 48.7086 152.12 49.186C151.842 51.0009 149.501 56.2039 149.501 56.2039" fill="#B2B2B2"/>
<path d="M146.887 53.6992C146.337 51.6301 148.4 48.466 148.4 48.466C147.562 48.0558 146.776 47.5481 146.058 46.9535C145.375 46.2638 145.375 44.6122 146.337 44.8905C147.299 45.1688 151.013 46.7055 151.013 46.7055C151.435 46.9505 151.768 47.3219 151.967 47.767C152.166 48.2122 152.219 48.7086 152.12 49.186C151.842 51.0009 149.501 56.2039 149.501 56.2039" stroke="#2E363E" stroke-miterlimit="10"/>
<path d="M163.73 205.909H97.5801V209.074H163.73V205.909Z" fill="#545454"/>
<path d="M123.329 135.246L71.0391 280.112H76.115L126.136 141.526L123.958 135.246H123.329Z" fill="#545454"/>
<path d="M121.889 135.246L69.5994 280.112H71.8015L124.018 135.434L123.958 135.246H121.889Z" fill="#2E363E"/>
<path d="M133.922 109.564H125.972L187.53 280.112H195.48L133.922 109.564Z" fill="#545454"/>
<path d="M135.356 109.564H127.406L188.964 280.112H196.914L135.356 109.564Z" fill="#2E363E"/>
<path d="M136.56 135.246L84.2703 280.112H89.3401L139.367 141.526L137.183 135.246H136.56Z" fill="#545454"/>
<path d="M135.12 135.246L82.8306 280.112H85.0267L137.25 135.434L137.183 135.246H135.12Z" fill="#2E363E"/>
<path d="M140.123 102.57H119.033V110.32H140.123V102.57Z" fill="#545454"/>
<path d="M140.129 102.57H120.249V110.32H140.129V102.57Z" fill="#454545"/>
</svg>
